<?xml version="1.0" encoding="utf-8"?>
<!-- Generator: Adobe Illustrator 18.1.1, SVG Export Plug-In . SVG Version: 6.00 Build 0)  -->
<svg version="1.1" id="Layer_1" xmlns="http://www.w3.org/2000/svg" xmlns:xlink="http://www.w3.org/1999/xlink" x="0px" y="0px"
	 viewBox="0 0 420 61" enable-background="new 0 0 420 61" xml:space="preserve">
<g>
	<g>
		<g>
			<path fill="#140958" d="M32,60.3c-8,0-15.4-3.1-21.1-8.7C5.3,46,2.2,38.5,2.2,30.5S5.3,15.1,11,9.4s13.1-8.7,21-8.7
				s15.4,3.1,21.1,8.7c5.6,5.6,8.7,13.1,8.7,21.1s-3.1,15.4-8.7,21.1C47.5,57.2,40,60.3,32,60.3z M32,1.6c-15.9,0-28.9,13-28.9,28.9
				s13,28.9,28.9,28.9s28.9-13,28.9-28.9S48,1.6,32,1.6z"/>
		</g>
	</g>
	<g>
		<g>
			<path fill="#FFF350" d="M32,2.8c15.3,0,27.7,12.4,27.7,27.7S47.3,58.2,32,58.2S4.3,45.8,4.3,30.5C4.3,15.2,16.7,2.8,32,2.8
				L32,2.8z"/>
		</g>
		<g>
			<path fill="#00974A" d="M32,58.7C16.5,58.7,3.9,46,3.9,30.5S16.5,2.3,32,2.3S60.2,15,60.2,30.5S47.6,58.7,32,58.7z M32,3.2
				C17,3.2,4.8,15.5,4.8,30.5S17,57.8,32,57.8s27.3-12.2,27.3-27.3S47.1,3.2,32,3.2z"/>
		</g>
	</g>
	<g>
		<g>
			<path fill="#140958" d="M31.4,13.3l4.7,9.5h-1.6c-1.4-2.6-2.7-5.2-4-7.8L31.4,13.3L31.4,13.3z"/>
		</g>
	</g>
	<g>
		<g>
			<polygon fill="#140958" points="29.5,16.9 33.2,24.1 32.2,25.3 29.5,20.1 26.2,26.7 26.2,26.7 26.1,26.9 24.5,26.9 			"/>
		</g>
	</g>
	<g>
		<g>
			<path fill="#140958" d="M36.7,43.7L36.7,43.7c-2.6-0.1-4.9-1.9-5.6-4.3H18.3l0.8-1.5h11.7h1.5c0.2,2.3,2.1,4.2,4.4,4.3l0,0h5.6
				V37h1.5v6.7C41.4,43.7,39.1,43.7,36.7,43.7L36.7,43.7z"/>
		</g>
	</g>
	<g>
		<g>
			<path fill="#00974A" d="M36.7,22.2L36.7,22.2c-2.6,0.1-4.9,1.9-5.6,4.3h-6.3L24,28l0,0l-3.3,6.5l0,0L19.9,36h1.6h9.2h1h0.5
				c0.2-2.3,2.1-4.2,4.4-4.3l0,0h5.6l0,0h1.5V28v-2.1v-3.7C41.4,22.1,39.1,22.2,36.7,22.2L36.7,22.2z M42.3,23.7v2.2V28v2.2h-5.6
				l0,0c-1.8,0.1-3.3,0.9-4.4,2.2V28c0.2-2.3,2.1-4.1,4.4-4.2l0,0h5.6V23.7z M30.8,34.5h-8.5l3.3-6.5h5.1l0,0v6.5H30.8z"/>
		</g>
	</g>
	<g>
		<g>
			<path fill="#FFFFFF" d="M42.3,23.7c0,2.2,0,4.3,0,6.5h-5.6l0,0c-1.8,0.1-3.3,0.9-4.4,2.2V28c0.2-2.3,2.1-4.1,4.4-4.2l0,0h5.6
				V23.7z M30.8,34.5h-8.5l3.3-6.5h5.1l0,0v6.5H30.8z"/>
		</g>
	</g>
	<g>
		<g>
			<path fill="#00974A" d="M31.1,26.5h-0.4h-5.9L24,28l0,0l-3.3,6.5l0,0L20,36h1.6h9.3v-1.5h-8.5l3.3-6.5h5.2
				C30.8,27.5,30.9,26.9,31.1,26.5L31.1,26.5z"/>
		</g>
	</g>
	<g>
		<g>
			<path fill="#EC1C24" d="M28.4,51.1l-0.4,4l-0.8-0.2l0.2-2.1c0-0.3,0-0.5,0-0.6s0-0.1-0.1-0.2c-0.1,0-0.2-0.1-0.4-0.1h-0.1v-0.5
				c0.4,0,0.7-0.2,0.9-0.5L28.4,51.1z"/>
		</g>
	</g>
	<g>
		<g>
			<path fill="#EC1C24" d="M29.6,54.1l0.8,0.1c0,0.2,0,0.3,0,0.4v0.1l0.1,0.1h0.1c0,0,0-0.1,0.1-0.1c0,0,0-0.1,0-0.3v-0.6
				c0,0.1-0.1,0.2-0.2,0.2s-0.2,0.1-0.3,0c-0.1,0-0.3-0.1-0.4-0.2c-0.1-0.1-0.2-0.2-0.2-0.4c0-0.1,0-0.3,0-0.6v-0.3
				c0-0.3,0-0.5,0.1-0.6c0-0.1,0.1-0.3,0.2-0.4c0.1-0.1,0.2-0.2,0.3-0.2c0.1-0.1,0.3-0.1,0.5,0c0.2,0,0.4,0.1,0.5,0.2
				c0.1,0.1,0.2,0.2,0.3,0.4c0.1,0.1,0.1,0.3,0.1,0.5s0,0.5,0,0.9v0.6c0,0.5,0,0.8-0.1,1c0,0.2-0.1,0.3-0.2,0.4
				c-0.1,0.1-0.2,0.2-0.3,0.3c-0.1,0.1-0.3,0.1-0.5,0.1s-0.4-0.1-0.5-0.2c-0.1-0.1-0.2-0.2-0.3-0.4C29.6,54.6,29.6,54.4,29.6,54.1z
				 M30.5,52.9c0,0.2,0,0.3,0,0.3l0.1,0.1c0.1,0,0.1,0,0.1-0.1c0,0,0-0.1,0.1-0.3v-0.7c0-0.2,0-0.3,0-0.4c0-0.1-0.1-0.1-0.1-0.1
				s-0.1,0-0.1,0.1c0,0-0.1,0.2-0.1,0.3V52.9z"/>
		</g>
	</g>
	<g>
		<g>
			<path fill="#EC1C24" d="M32.6,54.3l0.8-0.1c0,0.2,0,0.3,0,0.4c0,0,0,0.1,0.1,0.1h0.1c0,0,0.1,0,0.1-0.1v-0.1c0-0.1,0-0.2,0-0.3
				v-0.6c0,0.1-0.1,0.2-0.2,0.3C33.4,54,33.3,54,33.2,54s-0.3,0-0.4-0.1c-0.1-0.1-0.2-0.2-0.2-0.3s-0.1-0.3-0.1-0.6v-0.3
				c0-0.3,0-0.5,0-0.6s0-0.3,0.1-0.4c0.1-0.1,0.2-0.2,0.3-0.3s0.3-0.1,0.5-0.1s0.4,0,0.5,0.1s0.3,0.2,0.3,0.3
				c0.1,0.1,0.1,0.3,0.2,0.4c0,0.2,0,0.5,0.1,0.9v0.6c0,0.5,0,0.8,0,1s0,0.3-0.1,0.5s-0.2,0.3-0.3,0.4c-0.1,0.1-0.3,0.1-0.5,0.1
				s-0.4,0-0.6-0.1c-0.1-0.1-0.3-0.2-0.3-0.4C32.7,54.8,32.6,54.5,32.6,54.3z M33.3,53c0,0.2,0,0.3,0.1,0.3l0.1,0.1
				c0.1,0,0.1,0,0.1-0.1s0-0.2,0-0.3v-0.7c0-0.2,0-0.3-0.1-0.3c0-0.1-0.1-0.1-0.1-0.1s-0.1,0-0.1,0.1c0,0,0,0.2,0,0.3V53z"/>
		</g>
	</g>
	<g>
		<g>
			<path fill="#EC1C24" d="M35.6,54l0.8-0.2c0,0.2,0.1,0.3,0.1,0.3s0,0.1,0.1,0.1h0.1c0,0,0.1,0,0.1-0.1V54c0,0,0-0.1-0.1-0.3
				l-0.1-0.6c0,0.1-0.1,0.2-0.1,0.3c-0.1,0.1-0.2,0.1-0.3,0.2c-0.1,0-0.3,0-0.4,0c-0.1-0.1-0.2-0.2-0.3-0.3s-0.1-0.3-0.2-0.5
				l-0.1-0.3c-0.1-0.3-0.1-0.5-0.1-0.6s0-0.3,0.1-0.4c0-0.1,0.1-0.3,0.2-0.4c0.1-0.1,0.3-0.2,0.4-0.2c0.2-0.1,0.4-0.1,0.5-0.1
				s0.3,0.1,0.4,0.2c0.1,0.1,0.2,0.2,0.2,0.4c0,0.1,0.1,0.4,0.2,0.9l0.1,0.5c0.1,0.5,0.2,0.8,0.2,0.9c0,0.2,0,0.3,0,0.5
				s-0.1,0.3-0.3,0.4c-0.1,0.1-0.3,0.2-0.4,0.3c-0.2,0.1-0.4,0.1-0.6,0c-0.2,0-0.3-0.1-0.4-0.3C35.8,54.5,35.7,54.3,35.6,54z
				 M36.1,52.5c0,0.2,0.1,0.3,0.1,0.3h0.1c0.1,0,0.1-0.1,0.1-0.1c0-0.1,0-0.2,0-0.3l-0.2-0.7c0-0.2-0.1-0.3-0.1-0.3s-0.1-0.1-0.1,0
				c0,0-0.1,0-0.1,0.1s0,0.2,0,0.4L36.1,52.5z"/>
		</g>
	</g>
	<g>
		<g>
			<polygon fill="#EC1C24" points="22.7,51.3 23.8,52.2 23.6,51.6 			"/>
		</g>
	</g>
	<g>
		<g>
			<polygon fill="#00ADEE" points="23.8,52.2 22.7,51.3 23.1,52.2 			"/>
		</g>
	</g>
	<g>
		<g>
			<polygon fill="#EC1C24" points="23.8,52.2 23.1,52.2 22.6,53.1 			"/>
		</g>
	</g>
	<g>
		<g>
			<polygon fill="#00ADEE" points="23.8,52.2 22.6,53.1 23.6,52.9 			"/>
		</g>
	</g>
	<g>
		<g>
			<polygon fill="#EC1C24" points="23.8,52.2 23.6,52.9 24.2,53.7 			"/>
		</g>
	</g>
	<g>
		<g>
			<polygon fill="#00ADEE" points="23.8,52.2 24.2,53.7 24.3,52.6 			"/>
		</g>
	</g>
	<g>
		<g>
			<polygon fill="#EC1C24" points="23.8,52.2 24.3,52.6 25.3,52.3 			"/>
		</g>
	</g>
	<g>
		<g>
			<polygon fill="#00ADEE" points="23.8,52.2 25.3,52.3 24.3,51.8 			"/>
		</g>
	</g>
	<g>
		<g>
			<polygon fill="#EC1C24" points="23.8,52.2 24.3,51.8 24.3,50.8 			"/>
		</g>
	</g>
	<g>
		<g>
			<polygon fill="#00ADEE" points="23.8,52.2 23.6,51.6 24.3,50.8 			"/>
		</g>
	</g>
	<g>
		<g>
			<polygon fill="#EC1C24" points="41.6,51.3 40.4,52.2 40.6,51.6 			"/>
		</g>
	</g>
	<g>
		<g>
			<polygon fill="#00ADEE" points="40.4,52.2 41.6,51.3 41.1,52.2 			"/>
		</g>
	</g>
	<g>
		<g>
			<polygon fill="#EC1C24" points="40.4,52.2 41.1,52.2 41.7,53.1 			"/>
		</g>
	</g>
	<g>
		<g>
			<polygon fill="#00ADEE" points="40.4,52.2 41.7,53.1 40.7,52.9 			"/>
		</g>
	</g>
	<g>
		<g>
			<polygon fill="#EC1C24" points="40.4,52.2 40.7,52.9 40,53.7 			"/>
		</g>
	</g>
	<g>
		<g>
			<polygon fill="#00ADEE" points="40.4,52.2 40,53.7 39.9,52.6 			"/>
		</g>
	</g>
	<g>
		<g>
			<polygon fill="#EC1C24" points="40.4,52.2 39.9,52.6 39,52.3 			"/>
		</g>
	</g>
	<g>
		<g>
			<polygon fill="#00ADEE" points="40.4,52.2 39,52.3 39.9,51.8 			"/>
		</g>
	</g>
	<g>
		<g>
			<polygon fill="#EC1C24" points="40.4,52.2 39.9,51.8 39.9,50.8 			"/>
		</g>
	</g>
	<g>
		<g>
			<polygon fill="#00ADEE" points="40.4,52.2 40.6,51.6 39.9,50.8 			"/>
		</g>
	</g>
	<g>
		<g>
			<path fill="#FFFFFF" d="M54.5,19.7c0-0.1-0.1-0.2-0.2-0.1c-0.1,0.1-0.1,0.2-0.1,0.4c0,0.2-0.1,0.3-0.2,0.3
				c-1,0.7-1.9,1.2-2.8,1.8c-0.1,0-0.4,0.3-0.4,0.3c-0.1,0-0.1,0.1-0.1,0.2c0.3,0.7,0.3,0.8,0.6,1.5c0,0.1,0.1,0.1,0.2,0.1
				c0.1,0,0.4-0.1,0.5-0.1c1.1-0.2,2.1-0.4,3.3-0.6c0.1,0,0.2,0,0.3,0c0.1,0.1,0.2,0.4,0.4,0.3c0.1-0.1,0.1-0.1,0-0.3
				c-0.2-0.5-0.4-1.1-0.7-1.6c0-0.1-0.1-0.1-0.2-0.1C54.9,21.9,55,22,55,22.2c0,0.1-0.1,0.2-0.2,0.2L54,22.6l0,0
				c-0.8,0.2-1.6,0.3-2.4,0.5c0.9-0.6,1.9-1.2,2.8-1.7c0.1-0.1,0.2-0.1,0.3,0s0.2,0.4,0.4,0.3c0.1,0,0.1-0.1,0.1-0.2
				C55,20.8,54.7,20.3,54.5,19.7L54.5,19.7z"/>
		</g>
		<g>
			<path fill="#140958" d="M51.4,24.3c-0.1,0-0.2-0.1-0.3-0.2l-0.6-1.5c0-0.1,0-0.2,0.2-0.3c0,0,0.4-0.2,0.4-0.3
				c0.4-0.2,0.7-0.5,1.1-0.7c0.5-0.3,1.1-0.7,1.7-1.1c0.1-0.1,0.2-0.1,0.2-0.2c-0.1-0.3,0-0.4,0.1-0.5c0.1,0,0.2,0,0.3,0
				s0.1,0.1,0.2,0.2l0,0l0.7,1.6c0,0.1,0,0.2,0,0.3c0.1,0,0.2,0.1,0.2,0.2l0.7,1.6c0,0.1,0.1,0.3-0.1,0.4l0,0
				c-0.3,0.1-0.4-0.1-0.5-0.2c0,0,0-0.1-0.1-0.1l0,0h-0.2c-1,0.2-2,0.4-3.3,0.6l0,0c0,0-0.4,0.1-0.5,0.1
				C51.5,24.3,51.5,24.3,51.4,24.3z M50.8,22.5l0.6,1.5c0,0,0,0,0.1,0l0,0c0.1,0,0.4-0.1,0.5-0.1c1.3-0.3,2.3-0.4,3.3-0.6
				c0.1,0,0.3-0.1,0.4,0c0.1,0,0.1,0.1,0.1,0.2c0.1,0.1,0.1,0.1,0.1,0.1l0,0v-0.1l-0.7-1.6c0,0,0,0-0.1,0l0,0c0,0,0,0,0,0.1
				s0,0.1,0,0.2c0,0.2-0.1,0.3-0.3,0.3l-0.6,0.2l0,0H54c-0.7,0.2-1.5,0.3-2.2,0.5l-0.3,0.1l0-0.3l0.4-0.2c0.8-0.5,1.6-1,2.4-1.5
				c0.2-0.1,0.3-0.1,0.4,0c0.1,0,0.1,0.1,0.2,0.2c0,0,0,0.1,0.1,0.1l0,0c0,0,0,0,0-0.1l-0.7-1.7l0,0c-0.1,0,0,0.1,0,0.2l0,0
				c0,0.3-0.2,0.4-0.3,0.5c-0.6,0.4-1.2,0.8-1.7,1.1c-0.4,0.2-0.7,0.4-1.1,0.7C51.2,22.2,50.9,22.5,50.8,22.5L50.8,22.5z M54.6,21.4
				L54.6,21.4c-0.8,0.4-1.6,0.9-2.3,1.3c0.5-0.1,1.1-0.2,1.6-0.4l0.8-0.2c0.1,0,0.1-0.1,0.1-0.1v-0.1c0-0.1,0-0.2,0-0.3
				C54.7,21.6,54.6,21.5,54.6,21.4C54.7,21.5,54.7,21.5,54.6,21.4L54.6,21.4C54.6,21.5,54.6,21.4,54.6,21.4z"/>
		</g>
	</g>
	<g>
		<g>
			<path fill="#140958" d="M52.1,24.2l-0.2-0.6l0,0L52.1,24.2L52.1,24.2z M52.7,24l-0.2-0.6l0,0L52.7,24L52.7,24z M53.3,23.9
				l-0.2-0.6l0,0L53.3,23.9L53.3,23.9z M53.9,23.7l-0.2-0.6l0,0L53.9,23.7L53.9,23.7z M54.6,23.6L54.3,23l0,0L54.6,23.6L54.6,23.6z
				 M55.2,23.4L55,22.8l0,0L55.2,23.4L55.2,23.4z"/>
		</g>
	</g>
	<g>
		<g>
			<path fill="#140958" d="M51.6,23l-0.2-0.6l0,0L51.6,23L51.6,23z M52.2,22.7L52,22.1l0,0L52.2,22.7L52.2,22.7z M52.7,22.3
				l-0.2-0.6l0,0L52.7,22.3L52.7,22.3z M53.3,22L53,21.4l0,0L53.3,22L53.3,22z M53.8,21.7l-0.2-0.6l0,0L53.8,21.7L53.8,21.7z
				 M54.4,21.4l-0.2-0.6l0,0L54.4,21.4L54.4,21.4z"/>
		</g>
	</g>
	<g>
		<g>
			<path fill="#FFFFFF" d="M53.1,17.3l0.6,1.1c0,0.1,0.1,0.2,0.1,0.2s0.1,0.1-0.1,0.2c-0.1,0-0.2,0-0.3-0.1s-0.2-0.1-0.4,0l-2.9,1.7
				c-0.2,0.1-0.2,0.2-0.1,0.4c0,0.1,0,0.2-0.1,0.2c-0.1,0.1-0.2,0-0.2-0.1l-0.1-0.2L49,19.6c0-0.1-0.1-0.2-0.1-0.2
				c0-0.1,0-0.2,0.1-0.2s0.2,0,0.2,0.1c0.1,0.1,0.2,0.2,0.4,0.1l2.9-1.7c0.2-0.1,0.2-0.2,0.1-0.3c-0.1-0.1-0.1-0.2,0.1-0.3
				c0.1-0.1,0.2,0,0.2,0.1L53.1,17.3L53.1,17.3z"/>
		</g>
		<g>
			<path fill="#140958" d="M50.1,21.1c-0.1,0-0.2-0.1-0.3-0.1l-0.9-1.6c-0.1-0.1,0-0.3,0.1-0.4s0.3,0,0.4,0.1l0,0c0,0,0,0.1,0.1,0.1
				h0.1l2.9-1.7c0.1-0.1,0.1-0.1,0.1-0.2s-0.1-0.2,0-0.2c0-0.1,0.1-0.1,0.1-0.2c0.1-0.1,0.3,0,0.4,0.1l0,0l0.9,1.6
				c0.1,0.1,0.1,0.3-0.1,0.4l0,0c-0.2,0.1-0.3,0-0.4-0.2c0,0-0.1-0.1-0.2,0l-2.9,1.7c-0.1,0.1-0.1,0.1-0.1,0.2l0,0
				C50.4,20.8,50.3,21,50.1,21.1L50.1,21.1C50.2,21.1,50.1,21.1,50.1,21.1z M49.2,19.2L49.2,19.2C49.1,19.2,49.1,19.3,49.2,19.2
				l0.9,1.6c0,0,0,0,0.1,0c0,0,0,0,0-0.1c-0.1-0.2-0.1-0.4,0.2-0.6l2.9-1.7c0.2-0.1,0.4-0.1,0.5,0.1c0,0.1,0.1,0.1,0.1,0.1
				s0,0,0-0.1L53,17c0,0,0,0-0.1,0l0,0c0,0,0,0,0,0.1l0,0c0.1,0.2,0,0.4-0.2,0.5l-2.9,1.7c-0.1,0.1-0.2,0.1-0.3,0.1
				C49.4,19.4,49.3,19.4,49.2,19.2L49.2,19.2z"/>
		</g>
	</g>
	<g>
		<g>
			<path fill="#140958" d="M50.4,20.3L50,19.6l0,0L50.4,20.3L50.4,20.3z M50.9,20l-0.4-0.7l0,0L50.9,20L50.9,20z M51.5,19.7L51.1,19
				l0,0L51.5,19.7L51.5,19.7z M52,19.3l-0.4-0.7l0,0L52,19.3L52,19.3z M52.6,19l-0.4-0.7l0,0L52.6,19L52.6,19z M53.1,18.7L52.7,18
				l0,0L53.1,18.7L53.1,18.7z"/>
		</g>
	</g>
	<g>
		<g>
			<path fill="#FFFFFF" d="M54.5,41l-0.6,1.1c0,0.1-0.1,0.2-0.1,0.2s-0.1,0.1-0.2,0.1c-0.1-0.1-0.1-0.2,0-0.3c0.1-0.2,0-0.3-0.2-0.3
				l-2.9-1.6c-0.2-0.1-0.3,0-0.4,0.1c-0.1,0.1-0.2,0.1-0.2,0.1c-0.1-0.1-0.1-0.2-0.1-0.2l0.1-0.2l0.6-1.1c0-0.1,0.1-0.2,0.1-0.2
				c0-0.1,0.1-0.1,0.2-0.1c0.1,0,0.1,0.1,0.1,0.2c-0.1,0.1-0.1,0.3,0.1,0.4l2.9,1.6c0.2,0.1,0.2,0.1,0.4-0.1c0-0.1,0.1-0.2,0.3-0.1
				c0.1,0,0.1,0.1,0.1,0.2L54.5,41L54.5,41z"/>
		</g>
		<g>
			<path fill="#140958" d="M53.6,42.6L53.6,42.6L53.6,42.6c-0.2-0.1-0.3-0.3-0.2-0.4c0,0,0-0.1-0.1-0.2l-2.9-1.6
				c-0.1-0.1-0.2,0-0.2,0.1l0,0c-0.1,0.1-0.2,0.2-0.4,0.1l0,0c-0.2-0.1-0.2-0.3-0.1-0.4l0.9-1.6c0.1-0.1,0.3-0.2,0.4-0.1
				c0.1,0.1,0.2,0.2,0.1,0.4l0,0V39l0.1,0.1l2.9,1.6c0.1,0.1,0.1,0.1,0.2,0c0-0.1,0.1-0.1,0.2-0.2c0.1,0,0.2,0,0.2,0
				c0.1,0.1,0.2,0.2,0.1,0.4l0,0l-0.9,1.6C53.9,42.5,53.8,42.6,53.6,42.6z M53.6,42.3C53.6,42.3,53.7,42.3,53.6,42.3l0.9-1.6
				c0,0,0,0,0-0.1l0,0l0,0l0,0c-0.1,0.2-0.3,0.2-0.5,0.1l-2.9-1.6C51,39,50.9,39,50.9,38.9c0-0.1,0-0.2,0-0.3v-0.1h-0.1l-0.9,1.6
				c0,0,0,0,0,0.1c0,0,0,0,0.1,0c0.1-0.2,0.3-0.3,0.6-0.1l2.9,1.6C53.7,41.8,53.8,42,53.6,42.3C53.6,42.3,53.6,42.3,53.6,42.3z"/>
		</g>
	</g>
	<g>
		<g>
			<path fill="#140958" d="M53.3,41.8L53.3,41.8l0.4-0.8l0,0L53.3,41.8z M52.7,41.5L52.7,41.5l0.4-0.8l0,0L52.7,41.5z M52.2,41.2
				L52.2,41.2l0.4-0.8l0,0L52.2,41.2z M51.6,40.9L51.6,40.9l0.4-0.8l0,0L51.6,40.9z M51.1,40.6L51.1,40.6l0.4-0.8l0,0L51.1,40.6z
				 M50.5,40.3L50.5,40.3l0.4-0.8l0,0L50.5,40.3z"/>
		</g>
	</g>
	<g>
		<g>
			<path fill="#FFFFFF" d="M45.6,9.9c-0.1-0.1-0.3-0.3-0.2-0.4c0,0,0.1-0.1,0.2,0c0.5,0.4,0.9,0.7,1.4,1c0.1,0.1,0.1,0.2,0.1,0.3
				c-0.2,0.2-0.3,0-0.4,0c-0.1,0-0.2,0.1-0.3,0.2l-1.7,2.2c-0.2,0.3-0.2,0.5,0,0.6c0.2,0.2,0.5,0.4,0.8-0.1c0.5-0.7,1.1-1.5,1.6-2.2
				c0.1-0.1,0.1-0.2,0.1-0.3C47,11,47,10.9,47.1,10.8c0.1-0.1,0.2,0,0.3,0c0.4,0.3,0.6,0.5,1,0.7c0.1,0,0.1,0.1,0,0.2
				c-0.2,0.3-0.4-0.3-0.7,0.2l-1.6,2.2c-0.2,0.3-0.5,0.4-0.8,0.5c-0.3,0-0.8-0.2-1.1-0.4c-0.4-0.3-0.6-0.6-0.7-0.9
				c-0.1-0.3,0-0.6,0.3-1c0.5-0.7,1.1-1.4,1.6-2.2C45.6,10.1,45.6,10,45.6,9.9L45.6,9.9z"/>
		</g>
		<g>
			<path fill="#140958" d="M45.4,14.8c-0.4,0-0.8-0.2-1.2-0.5s-0.6-0.6-0.7-1c-0.1-0.4,0-0.7,0.3-1.1l1.6-2.2c0-0.1,0.1-0.1,0.1-0.2
				c0,0,0,0-0.1-0.1s-0.2-0.3-0.1-0.5l0,0c0,0,0.2-0.1,0.3-0.1l0,0l1.4,1c0.1,0.1,0.2,0.1,0.2,0.2c0.1,0,0.2,0,0.3,0.1l1,0.7
				l0.1,0.1c0,0.1,0,0.2,0,0.3l0,0c-0.2,0.2-0.3,0.1-0.4,0.1c-0.1,0-0.1-0.1-0.2,0.1l-1.6,2.2C46.1,14.6,45.8,14.7,45.4,14.8
				L45.4,14.8z M45.6,9.6c0,0,0,0,0.1,0.1c0,0,0.1,0.1,0.1,0.2l0,0l0,0c0,0.1-0.1,0.2-0.1,0.3L44,12.4c-0.2,0.3-0.3,0.6-0.2,0.9
				c0.1,0.3,0.3,0.6,0.6,0.8s0.8,0.4,1,0.4c0.3,0,0.5-0.2,0.7-0.4l1.6-2.2c0.2-0.3,0.4-0.2,0.5-0.2s0.1,0,0.1,0l0,0l0,0l-1-0.8
				c0,0,0,0-0.1,0l0,0l0,0c0,0,0,0,0.1,0.1l0,0c0.1,0.1,0.1,0.3-0.1,0.5l-1.6,2.2c-0.1,0.2-0.3,0.3-0.4,0.3c-0.2,0-0.4-0.1-0.6-0.2
				c-0.2-0.1-0.2-0.3-0.2-0.4c0-0.1,0.1-0.3,0.2-0.4l1.7-2.2l0,0c0.1-0.1,0.1-0.2,0.3-0.2l0,0l0,0c0.1,0,0.1,0,0.2,0.1
				c0.1,0,0.1,0,0.1,0s0,0,0-0.1l0,0L45.6,9.6L45.6,9.6z M46.6,11L45,13.2c-0.1,0.1-0.1,0.2-0.1,0.3c0,0,0,0.1,0.1,0.2
				c0.1,0.1,0.3,0.2,0.4,0.2c0.1,0,0.2-0.1,0.2-0.2l1.6-2.2c0-0.1,0.1-0.1,0.1-0.2c-0.1-0.1-0.2-0.2-0.2-0.3c-0.1,0-0.2,0-0.2-0.1
				c0,0,0,0-0.1,0S46.7,10.9,46.6,11L46.6,11z"/>
		</g>
	</g>
	<g>
		<g>
			<path fill="#140958" d="M44.6,13.6L44,13.2l0,0L44.6,13.6L44.6,13.6z M45,13.1l-0.7-0.5l0,0L45,13.1L45,13.1z M45.4,12.6
				l-0.7-0.5l0,0L45.4,12.6L45.4,12.6z M45.8,12.1l-0.7-0.5l0,0L45.8,12.1L45.8,12.1z M46.2,11.6l-0.7-0.5l0,0L46.2,11.6L46.2,11.6z
				 M46.5,11.1l-0.7-0.5l0,0L46.5,11.1L46.5,11.1z"/>
		</g>
	</g>
	<g>
		<g>
			<path fill="#140958" d="M45.9,14.6l-0.3-0.2l0,0L45.9,14.6L45.9,14.6z M46.4,14.1l-0.3-0.2l0,0L46.4,14.1L46.4,14.1z M46.8,13.6
				l-0.3-0.2l0,0L46.8,13.6L46.8,13.6z M47.2,13.1l-0.3-0.2l0,0L47.2,13.1L47.2,13.1z M47.5,12.6l-0.3-0.2l0,0L47.5,12.6L47.5,12.6z
				 M47.9,12.1l-0.3-0.2l0,0L47.9,12.1L47.9,12.1z"/>
		</g>
	</g>
	<g>
		<g>
			<path fill="#FFFFFF" d="M51.8,25.7c0-0.1,0-0.1,0.1-0.2c0.2-0.1,0.2,0.2,0.3,0.3c0.1,0.1,0.2,0.1,0.3,0c1.1-0.2,2.1-0.3,3.2-0.5
				c0.1,0,0.2,0,0.3-0.2c0-0.2,0-0.3,0.2-0.3c0.1,0,0.1,0,0.2,0.1l0.5,2.8c0,0.2-0.1,0.4-0.3,0.4c-0.4,0.1-0.5,0.1-0.9,0.2
				c-0.5,0-0.5-0.6,0-0.8c0.4-0.2,0.6-0.3,0.5-0.6L56,26.5l-1.3,0.2c0,0.2,0.1,0.3,0.1,0.5c0,0.1,0,0.2-0.1,0.2s-0.2,0-0.2,0
				c-0.1,0-0.2,0-0.2-0.1l-0.1-0.5L52.7,27c0,0.2,0.1,0.4,0.1,0.6c0.1,0.3,0.4,0.3,0.7,0.3s0.4,0.2,0.4,0.4c0,0.1,0,0.2-0.3,0.4
				l-0.9,0.1c-0.1,0-0.4,0-0.4-0.3C52.1,27.6,52,26.7,51.8,25.7L51.8,25.7z"/>
		</g>
		<g>
			<path fill="#140958" d="M52.7,29c-0.2,0-0.5-0.1-0.5-0.4l-0.5-2.9l0,0c0-0.1,0-0.2,0.2-0.3c0.3-0.1,0.4,0.1,0.4,0.2v0.1
				c0,0,0.1,0,0.2,0l3.2-0.5c0,0,0,0,0.1,0s0.1,0,0.1-0.1c0-0.2,0-0.4,0.3-0.5l0,0l0,0c0.1,0,0.2,0.1,0.3,0.2l0,0l0.5,2.8
				c0,0.3-0.1,0.5-0.4,0.6c-0.2,0-0.4,0.1-0.6,0.1c-0.1,0-0.2,0-0.4,0.1c-0.3,0-0.5-0.2-0.5-0.4c0-0.2,0.1-0.6,0.5-0.7
				c0.4-0.2,0.5-0.3,0.4-0.4l-0.1-0.4l-1,0.2l0.1,0.4c0,0.2-0.1,0.3-0.2,0.3l0,0h-0.2c-0.2,0-0.3-0.1-0.3-0.2l0,0L54,27l-1.2,0.2
				l0.1,0.5c0.1,0.1,0.2,0.2,0.5,0.2h0.1c0.4,0,0.5,0.3,0.6,0.5l0,0l0,0l0,0c0,0.1-0.1,0.3-0.4,0.4l0,0L52.7,29L52.7,29z M52,25.7
				l0.5,2.9c0,0.2,0.3,0.2,0.3,0.2l0.9-0.1c0.2-0.1,0.2-0.1,0.2-0.2l0,0c-0.1-0.2-0.1-0.3-0.3-0.3h-0.1c-0.3,0-0.6,0-0.8-0.4l0,0
				L52.5,27l1.8-0.3l0.1,0.6c0,0,0,0,0.1,0h0.2c0,0,0,0,0-0.1l-0.1-0.6l1.6-0.3l0.1,0.6c0.1,0.4-0.2,0.6-0.6,0.7l0,0
				c-0.2,0.1-0.3,0.2-0.3,0.4c0,0.1,0.1,0.2,0.2,0.2c0.1,0,0.3,0,0.4-0.1c0.2,0,0.3,0,0.6-0.1c0.1,0,0.2-0.2,0.2-0.3L56.2,25l0,0
				l0,0c0,0,0,0,0,0.2l0,0c0,0.2-0.2,0.2-0.3,0.3l0,0L52.6,26c-0.1,0-0.3,0-0.4-0.1l0,0C52.1,25.9,52.1,25.8,52,25.7L52,25.7
				L52,25.7L52,25.7z"/>
		</g>
	</g>
	<g>
		<g>
			<path fill="#140958" d="M53,28.9v-0.5l0,0V28.9L53,28.9z M53.7,28.8l-0.1-0.4l0,0L53.7,28.8L53.7,28.8z M55.5,28.4V28l0,0V28.4
				L55.5,28.4z M56.2,28.3l-0.1-0.4l0,0L56.2,28.3L56.2,28.3z M52.8,27.2l-0.1-0.8l0,0L52.8,27.2L52.8,27.2z M53.4,27l-0.1-0.8l0,0
				L53.4,27L53.4,27z M54,26.9l-0.1-0.8l0,0L54,26.9L54,26.9z M54.6,26.8L54.5,26l0,0L54.6,26.8L54.6,26.8z M55.3,26.7l-0.1-0.8l0,0
				L55.3,26.7L55.3,26.7z M55.9,26.6l-0.1-0.8l0,0L55.9,26.6L55.9,26.6z"/>
		</g>
	</g>
	<g>
		<g>
			<path fill="#FFFFFF" d="M52.4,30.1c0-0.1,0.1-0.2,0.2-0.2c0.1,0,0.2,0.1,0.2,0.3c0.1,0.2,0.2,0.2,0.3,0.2c1.1,0,2.1,0,3.2,0
				c0.1,0,0.3,0,0.3-0.2c0.1-0.2,0.1-0.3,0.2-0.3c0.1,0,0.1,0.1,0.1,0.1v1.9c0,0.5-0.1,0.8-0.4,1.1c-0.3,0.3-0.6,0.4-1,0.4
				c-0.2,0-0.4,0-0.5-0.1s-0.3-0.3-0.4-0.5L53,33.3c-0.1,0-0.2,0-0.3,0.1s0,0.4-0.3,0.4c-0.1,0-0.2-0.1-0.2-0.2v-1.1l2.1-0.6v-0.3
				c-0.4,0-1,0-1.4,0c-0.2,0-0.2,0-0.3,0.1s0,0.3-0.2,0.4c-0.1,0-0.1,0-0.2-0.1C52.4,31.3,52.4,30.7,52.4,30.1L52.4,30.1z
				 M56.3,31.5H55c0,0.3,0.1,0.5,0.2,0.6c0.1,0.1,0.3,0.1,0.5,0.1s0.3,0,0.4-0.1C56.3,32,56.3,31.8,56.3,31.5L56.3,31.5z"/>
		</g>
		<g>
			<path fill="#140958" d="M52.6,33.9L52.6,33.9c-0.2,0-0.3-0.2-0.3-0.4v-1.2l2.1-0.6v-0.1h-1.3c-0.1,0-0.1,0-0.2,0v0.1
				c0,0.1-0.1,0.3-0.3,0.3l0,0l0,0c-0.1,0-0.2-0.1-0.3-0.2l0,0V30l0,0c0-0.2,0.2-0.3,0.3-0.3l0,0l0,0c0.2,0,0.3,0.2,0.3,0.4
				c0,0.1,0,0.1,0.1,0.1h0.1h3.2c0.1,0,0.2,0,0.2,0l0,0c0,0,0,0,0-0.1s0.1-0.3,0.3-0.3l0,0c0.1,0,0.2,0.1,0.2,0.2l0,0l0,0v1.9
				c0,0.5-0.1,0.9-0.4,1.2c-0.3,0.3-0.6,0.5-1.1,0.5c-0.2,0-0.4,0-0.6-0.1c-0.1-0.1-0.3-0.2-0.4-0.4l-1.7,0.5c0,0,0,0,0,0.1
				C52.9,33.7,52.8,33.9,52.6,33.9z M52.6,32.5v1v0.1l0,0v-0.1c0-0.1,0-0.2,0.1-0.2l0,0l0.3-0.1l1.7-0.5l0.1,0.1
				c0.1,0.2,0.3,0.4,0.4,0.4c0.1,0.1,0.3,0.1,0.5,0.1c0.4,0,0.6-0.1,0.9-0.4c0.2-0.2,0.3-0.6,0.3-1v-1.8l0,0l0,0v0.1c0,0,0,0,0,0.1
				c0,0.2-0.2,0.3-0.4,0.3l0,0h-3.2c0,0,0,0-0.1,0s-0.3,0-0.4-0.2l0,0c0-0.1,0-0.1-0.1-0.1l0,0l0,0V32l0,0c0,0,0,0,0-0.1
				s0-0.1,0.1-0.2l0,0c0.1-0.1,0.2-0.1,0.4-0.1h1.5v0.5L52.6,32.5z M55.7,32.3c-0.3,0-0.4,0-0.6-0.1c-0.1-0.1-0.2-0.3-0.2-0.7v-0.1
				h1.5v0.1c0,0.4-0.1,0.6-0.2,0.7C56.1,32.3,55.9,32.3,55.7,32.3L55.7,32.3z M55.2,31.7c0,0.2,0.1,0.3,0.1,0.3
				c0.1,0,0.2,0.1,0.4,0.1s0.3,0,0.4-0.1c0,0,0.1-0.1,0.1-0.3L55.2,31.7z"/>
		</g>
	</g>
	<g>
		<g>
			<path fill="#140958" d="M55.6,33.4v-0.8l0,0V33.4L55.6,33.4z M53.1,33.4v-0.6l0,0V33.4L53.1,33.4z M56.3,33.3v-0.6l0,0V33.3
				L56.3,33.3z M55,33.2v-0.6l0,0V33.2L55,33.2z M53.7,33.1v-0.6l0,0V33.1L53.7,33.1z M54.4,33v-0.5l0,0V33L54.4,33z M53.1,31.6
				v-0.8l0,0V31.6L53.1,31.6z M53.7,31.6v-0.8l0,0V31.6L53.7,31.6z M54.4,31.6v-0.8l0,0V31.6L54.4,31.6z M55,31.6v-0.8l0,0V31.6
				L55,31.6z M55.6,31.6v-0.8l0,0V31.6L55.6,31.6z M56.3,31.6v-0.8l0,0V31.6L56.3,31.6z"/>
		</g>
	</g>
	<g>
		<g>
			<path fill="#FFFFFF" d="M52,34.9c0.4,0.1,0.7,0.1,1.1,0.2c0.2,0.1,0.3,0.2,0.3,0.4c0,0.1-0.1,0.3-0.3,0.3c-0.4,0-0.5,0-0.7,0.1
				c-0.1,0.1-0.2,0.2-0.2,0.3s0,0.2,0.1,0.3s0.2,0.1,0.3,0.2c0.1,0,0.2,0,0.4,0c0.1-0.1,0.4-0.2,0.7-0.5c0.4-0.3,0.7-0.5,1-0.6
				c0.2-0.1,0.5-0.1,0.7,0c0.3,0.1,0.6,0.2,0.7,0.4c0.2,0.2,0.2,0.5,0.2,0.8c0,0.1-0.1,0.3-0.2,0.4c-0.1,0.1-0.4,0.3-0.3,0.4
				c-0.1,0.2,0.4,0.1,0.3,0.5c0,0.2-0.1,0.3-0.3,0.3c-0.4-0.1-0.7-0.1-1.1-0.2c-0.2-0.1-0.3-0.1-0.3-0.3c0-0.1,0.1-0.3,0.4-0.3
				c0.3,0,0.8,0,0.8-0.4c0-0.1,0-0.2,0-0.3s-0.1-0.1-0.2-0.1c-0.1,0-0.2,0-0.3,0s-0.3,0.2-0.4,0.3c-0.4,0.4-0.8,0.6-1.1,0.7
				c-0.3,0.1-0.5,0.1-0.8,0.1c-0.3-0.1-0.6-0.2-0.8-0.5s-0.3-0.5-0.2-0.9s0.5-0.6,0.5-0.7c0-0.1-0.1-0.1-0.2-0.2
				C52,35.5,52,35.4,52,35.3C51.8,34.9,51.9,34.9,52,34.9L52,34.9z"/>
		</g>
		<g>
			<path fill="#140958" d="M55.6,38.2L54.5,38c-0.3-0.1-0.4-0.2-0.4-0.5l0,0l0,0c0-0.1,0.1-0.4,0.5-0.4l0,0c0.5,0,0.7-0.1,0.7-0.3
				c0-0.1,0-0.1,0-0.2l-0.1-0.1c-0.1,0-0.2,0-0.3,0s-0.2,0.1-0.4,0.3c-0.5,0.4-0.8,0.7-1.1,0.8s-0.6,0.1-0.9,0.1
				c-0.4-0.1-0.7-0.2-0.9-0.5s-0.3-0.6-0.2-1c0.1-0.3,0.3-0.5,0.4-0.6c0,0,0,0,0.1-0.1l0,0c0,0-0.1,0-0.1-0.1
				c-0.1-0.1-0.2-0.3-0.1-0.5c0.1-0.2,0.2-0.3,0.4-0.3l0,0l1.1,0.2c0.3,0.1,0.4,0.3,0.4,0.5l0,0c0,0.2-0.2,0.4-0.4,0.4l0,0H53
				c-0.2,0-0.4,0-0.5,0.1c-0.1,0-0.2,0.1-0.2,0.2c0,0.1,0,0.1,0,0.2c0,0.1,0.1,0.1,0.2,0.1c0.1,0,0.2,0,0.3,0s0.3-0.1,0.6-0.4
				c0.4-0.4,0.8-0.6,1-0.6c0.3-0.1,0.5-0.1,0.7-0.1c0.3,0.1,0.6,0.2,0.8,0.5s0.2,0.6,0.2,0.9c0,0.2-0.1,0.3-0.2,0.4
				c0,0.1-0.1,0.1-0.2,0.2l-0.1,0.1l0,0c0.1,0.1,0.3,0.2,0.2,0.5C56,38.1,55.9,38.2,55.6,38.2L55.6,38.2z M54.4,37.6
				c0,0.1,0,0.2,0.2,0.2l1,0.2c0.2,0,0.2-0.1,0.2-0.2l0,0c0-0.1,0-0.1-0.1-0.2c-0.1,0-0.2-0.1-0.2-0.3c0-0.1,0.1-0.2,0.2-0.3
				c0.1,0,0.1-0.1,0.2-0.2c0.1-0.1,0.1-0.2,0.1-0.3c0-0.3,0-0.5-0.1-0.7s-0.4-0.3-0.6-0.4c-0.2,0-0.4,0-0.6,0
				c-0.2,0.1-0.5,0.3-0.9,0.6c-0.3,0.3-0.5,0.4-0.7,0.5s-0.3,0.1-0.4,0.1c-0.2,0-0.3-0.1-0.4-0.2c-0.1-0.1-0.1-0.3-0.1-0.4
				c0-0.2,0.1-0.3,0.3-0.4c0.1-0.1,0.3-0.1,0.6-0.1h0.1c0.1,0,0.1-0.1,0.2-0.2c0-0.1,0-0.2-0.2-0.2L52,35c-0.1,0-0.2,0.1-0.2,0.1
				l0,0c0,0.1,0,0.1,0,0.2l0,0l0,0c0.1,0,0.2,0.1,0.2,0.3c0,0.1-0.1,0.1-0.2,0.2c-0.1,0.1-0.3,0.3-0.3,0.5c-0.1,0.3,0,0.5,0.2,0.8
				c0.2,0.2,0.4,0.4,0.7,0.4c0.2,0,0.5,0,0.7-0.1s0.6-0.3,1-0.7c0.2-0.2,0.4-0.3,0.5-0.4c0.1-0.1,0.3-0.1,0.4-0.1
				c0.1,0,0.2,0.1,0.3,0.2c0.1,0.1,0.1,0.2,0.1,0.4c-0.1,0.4-0.7,0.5-0.9,0.5C54.5,37.4,54.4,37.5,54.4,37.6z"/>
		</g>
	</g>
	<g>
		<g>
			<rect x="52.3" y="35.8" fill="#140958" width="0" height="0.6"/>
		</g>
	</g>
	<g>
		<g>
			<path fill="#140958" d="M55.2,38.1L55.2,38.1v-0.4l0,0V38.1z M54.5,38L54.5,38l0.1-0.5l0,0L54.5,38z M52.7,37.6L52.7,37.6
				l0.1-0.6l0,0L52.7,37.6z M53.3,37.6L53.3,37.6l0.1-0.6l0,0L53.3,37.6z M52,37.6L52,37.6l0.1-0.6l0,0L52,37.6z M54,37.1L54,37.1
				l0.1-0.8l0,0L54,37.1z M55.4,36.6L55.4,36.6l0.1-0.5l0,0L55.4,36.6z M54.8,36.5L54.8,36.5l0.1-0.6l0,0L54.8,36.5z M52.3,36
				L52.3,36l0.1-0.6l0,0L52.3,36z M53,35.8L53,35.8v-0.4l0,0V35.8z"/>
		</g>
	</g>
	<g>
		<g>
			<path fill="#FFFFFF" d="M48.7,42c0.1-0.1,0.2,0,0.2,0c0.1,0.1,0,0.2-0.1,0.4c0,0.1,0.1,0.2,0.2,0.2l2.7,1.9
				c0.1-0.1,0.2-0.2,0.1-0.4c-0.2-0.2-0.8-0.7-0.5-1c0.1-0.1,0.2-0.2,0.5,0l0.9,0.6c0.1,0.1,0.1,0.2,0.1,0.3
				c-0.6,0.9-1.2,1.7-1.8,2.6c-0.1,0.1-0.2,0.2-0.3,0.1c-0.3-0.2-0.6-0.4-0.9-0.6c-0.1-0.1-0.2-0.2-0.1-0.4c0.3-0.4,0.8,0,1.1,0.1
				c0.1,0,0.2-0.1,0.3-0.2c-0.9-0.6-1.8-1.3-2.7-1.9c-0.1-0.1-0.2-0.1-0.3-0.1c-0.1,0.1-0.2,0.3-0.4,0.2c-0.1,0-0.1-0.1-0.1-0.2
				C48,43,48.3,42.6,48.7,42L48.7,42z"/>
		</g>
		<g>
			<path fill="#140958" d="M50.8,46.9c-0.1,0-0.1,0-0.2-0.1l-0.9-0.6c-0.2-0.1-0.3-0.4-0.2-0.5l0,0c0.2-0.4,0.6-0.2,0.9-0.1
				c0.1,0,0.2,0.1,0.3,0.1c0,0,0.1,0,0.1-0.1l-2.6-1.8c-0.1-0.1-0.1-0.1-0.2-0.1l0,0c-0.1,0.1-0.2,0.2-0.4,0.1
				c-0.1-0.1-0.2-0.2-0.1-0.3l0,0l1.1-1.6c0.2-0.2,0.4,0,0.4,0l0,0c0.1,0.2,0.1,0.3,0,0.4v0.1c0,0,0,0.1,0.1,0.1l0,0l2.6,1.8
				l0.1-0.1c0,0-0.1-0.1-0.1-0.2c-0.2-0.3-0.6-0.7-0.4-1c0.1-0.1,0.3-0.2,0.6,0l0.9,0.6c0.1,0,0.1,0.1,0.1,0.2c0,0,0,0.2,0,0.3
				l-1.8,2.6C51.1,46.8,51,46.8,50.8,46.9C50.9,46.9,50.9,46.9,50.8,46.9z M49.8,45.7c0,0.1,0,0.2,0.1,0.2l0.9,0.6c0,0,0,0,0.1,0H51
				l1.8-2.6v-0.1l-0.9-0.6c-0.1,0-0.2-0.1-0.3,0c-0.1,0.2,0.2,0.5,0.3,0.7c0,0.1,0.1,0.1,0.1,0.2c0.1,0.2,0,0.4-0.1,0.5l-0.1,0.1
				l-0.1-0.1L49,42.8l0,0c-0.1-0.1-0.2-0.1-0.2-0.3l0,0l0,0c0-0.1,0-0.1,0.1-0.2c0-0.1,0-0.1,0-0.1l0,0l0,0l-1,1.5l0,0
				c0,0,0,0,0.1-0.1l0.1-0.1l0,0l0,0c0.1,0,0.3,0,0.4,0.1l2.8,1.9l-0.1,0.1l0,0c-0.1,0.1-0.2,0.2-0.3,0.2l0,0l0,0
				c-0.1,0-0.3-0.1-0.4-0.1C50.1,45.6,49.9,45.6,49.8,45.7z M52.7,44L52.7,44L52.7,44z"/>
		</g>
	</g>
	<g>
		<g>
			<path fill="#140958" d="M50.3,46.5L50.3,46.5l0.2-0.3l0,0L50.3,46.5z M49.8,46.1L49.8,46.1l0.2-0.3l0,0L49.8,46.1z M51,45.5
				L51,45.5l0.4-0.7l0,0L51,45.5z M50.4,45.2L50.4,45.2l0.4-0.7l0,0L50.4,45.2z M49.9,44.8L49.9,44.8l0.4-0.7l0,0L49.9,44.8z
				 M49.4,44.5L49.4,44.5l0.4-0.7l0,0L49.4,44.5z M51.9,44.1L51.9,44.1l0.2-0.3l0,0L51.9,44.1z M48.9,44.1L48.9,44.1l0.4-0.7l0,0
				L48.9,44.1z M48.4,43.7L48.4,43.7l0.4-0.7l0,0L48.4,43.7z M51.4,43.7L51.4,43.7l0.1-0.3l0,0L51.4,43.7z"/>
		</g>
	</g>
	<g>
		<g>
			<path fill="#FFFFFF" d="M46.3,15.8c0-0.1,0-0.1,0-0.2c0.1-0.2,0.3,0,0.4,0.1c0.1,0.1,0.2,0,0.3-0.1c0.8-0.7,1.6-1.4,2.5-2.1
				c0.1-0.1,0.2-0.2,0.2-0.2c0-0.2-0.2-0.3,0-0.4c0.1-0.1,0.2,0,0.2,0l0.9,1.1c-0.4,0.8-0.8,1.6-1.3,2.5c0.1,0,0.6-0.5,0.8-0.7
				s0.5-0.4,0.7-0.6c0.1-0.1,0.2-0.2,0.1-0.4c-0.1-0.1-0.1-0.3,0-0.3c0,0,0.1,0,0.2,0.1c0.3,0.3,0.6,0.6,0.8,1c0,0.1,0.1,0.1,0,0.2
				c-0.1,0.1-0.2,0.1-0.3-0.1c-0.1-0.1-0.2,0-0.4,0.1l-3,2.6l-0.6-0.7c0.5-1,1-1.9,1.5-2.9c-0.2,0.2-0.9,0.8-1,0.9
				c-0.2,0.2-0.5,0.4-0.7,0.6c-0.1,0.1-0.2,0.2-0.1,0.3c0.1,0.1,0.2,0.2,0,0.4c-0.1,0.1-0.2,0-0.2,0C46.8,16.4,46.6,16.1,46.3,15.8
				L46.3,15.8z"/>
		</g>
		<g>
			<path fill="#140958" d="M48.3,18.4l-0.8-0.9v-0.1c0.4-0.7,0.7-1.4,1.1-2.1l0.1-0.2c-0.1,0.1-0.2,0.2-0.3,0.3l-0.9,0.8
				c-0.1,0.1-0.1,0.1-0.1,0.2l0,0c0.1,0.1,0.2,0.3,0,0.5l0,0c-0.1,0.1-0.3,0.1-0.4,0l0,0l-0.9-1c-0.1-0.1,0-0.3,0-0.4
				c0.2-0.2,0.4,0,0.5,0l0,0c0,0,0.1,0,0.2-0.1l2.5-2.1c0.1-0.1,0.1-0.1,0.1-0.1s0,0,0-0.1c-0.1-0.1-0.2-0.3,0-0.4l0,0
				c0.1,0,0.2-0.1,0.4,0l0,0l1,1.2V14c-0.3,0.6-0.6,1.1-0.9,1.7l-0.1,0.2l0.1-0.1c0.1-0.1,0.1-0.1,0.2-0.2l0.7-0.6
				c0.1-0.1,0.1-0.2,0.1-0.2c-0.1-0.1-0.1-0.2-0.1-0.3s0.1-0.1,0.2-0.2c0.1,0,0.3,0,0.4,0.1l0.8,1c0.1,0.1,0.1,0.3,0,0.4l0,0
				c-0.1,0.1-0.2,0.1-0.2,0.1l0,0c-0.1,0-0.2-0.1-0.3-0.2c-0.1,0-0.2,0.1-0.2,0.1L48.3,18.4z M47.9,17.5l0.5,0.5l2.9-2.5
				c0.3-0.3,0.5-0.1,0.5-0.1l0,0c0.1,0.1,0.1,0.1,0.1,0.1l0,0l0,0l0,0l-0.8-1c0,0,0,0-0.1,0l0,0c0,0,0,0,0.1,0.1l0,0
				c0.1,0.2,0,0.4-0.2,0.5l-0.7,0.6c0,0-0.1,0.1-0.2,0.2c-0.4,0.3-0.6,0.5-0.6,0.5l-0.2-0.2l0.4-0.7c0.3-0.6,0.6-1.1,0.9-1.7l-0.9-1
				l0,0c0,0,0,0,0,0.1s0.1,0.1,0.1,0.2c0,0.1-0.1,0.2-0.2,0.3L47,15.5c-0.2,0.2-0.4,0.2-0.5,0.1l0,0c0,0,0,0-0.1,0l-0.1-0.1l0,0l0,0
				l0.8,1c0,0,0,0,0.1,0c0,0,0,0-0.1-0.1v-0.1c0-0.1,0-0.3,0.2-0.5l0.9-0.8c0.3-0.2,0.6-0.6,0.8-0.7l0.2,0.2l-0.4,0.8
				C48.6,16.1,48.2,16.8,47.9,17.5z M51.1,14.5L51.1,14.5L51.1,14.5z"/>
		</g>
	</g>
	<g>
		<g>
			<path fill="#140958" d="M47.5,16.1l-0.2-0.2l0,0L47.5,16.1L47.5,16.1z M48,15.7l-0.2-0.2l0,0L48,15.7L48,15.7z M48.4,15.3
				L48.2,15l0,0L48.4,15.3L48.4,15.3z M50,15.1l-0.8-0.9l0,0L50,15.1L50,15.1z M48.9,14.8l-0.2-0.2l0,0L48.9,14.8L48.9,14.8z
				 M50.3,14.5l-0.6-0.7l0,0L50.3,14.5L50.3,14.5z"/>
		</g>
	</g>
	<g>
		<g>
			<path fill="#140958" d="M48.9,17.8l-0.4-0.5l0,0L48.9,17.8L48.9,17.8z M49.4,17.4l-0.6-0.7l0,0L49.4,17.4L49.4,17.4z M49.9,16.9
				l-0.2-0.3l0,0L49.9,16.9L49.9,16.9z M50.4,16.5l-0.2-0.3l0,0L50.4,16.5L50.4,16.5z M50.8,16.1l-0.2-0.3l0,0L50.8,16.1L50.8,16.1z
				 M51.3,15.7l-0.2-0.3l0,0L51.3,15.7L51.3,15.7z"/>
		</g>
	</g>
	<g>
		<g>
			<path fill="#140958" d="M49.4,16.3L49.1,16l0,0L49.4,16.3L49.4,16.3z M49.7,15.7l-0.4-0.4l0,0L49.7,15.7L49.7,15.7z"/>
		</g>
	</g>
	<g>
		<g>
			<path fill="#FFFFFF" d="M11,23.7l0.4-0.8c0.4,0.2,0.7,0.4,0.9,0.7c0.2,0.3,0.2,0.6,0.2,1c-0.1,0.5-0.4,0.8-0.9,1s-1.1,0.2-1.9,0
				c-0.7-0.2-1.2-0.4-1.6-0.8c-0.3-0.4-0.5-0.7-0.4-1.1c0.1-0.3,0.2-0.5,0.5-0.6l0,0C8.3,23,8.1,22.9,8,22.9
				c-0.1-0.1-0.1-0.1-0.1-0.2s0.1-0.3,0.4-0.3c0.5,0.1,0.6,0.1,1,0.2c0.2,0.1,0.3,0.3,0.3,0.4c0,0.2-0.2,0.3-0.3,0.3
				c-0.5,0-0.8,0.1-0.9,0.3c0,0.2,0,0.3,0.3,0.4c0.2,0.1,0.7,0.2,1.3,0.3c0.7,0.2,1.2,0.2,1.4,0.2s0.3-0.1,0.4-0.3
				c0-0.1,0-0.2-0.1-0.3C11.6,24,11.3,23.8,11,23.7L11,23.7z"/>
		</g>
		<g>
			<path fill="#140958" d="M10.8,26c-0.3,0-0.6,0-1-0.1c-0.7-0.2-1.3-0.4-1.6-0.8c-0.4-0.4-0.5-0.8-0.4-1.2c0.1-0.3,0.2-0.5,0.5-0.7
				l0,0H8.2C8,23,8,22.9,8,22.8c0-0.2,0.2-0.5,0.5-0.5l0,0l1,0.2c0.3,0.1,0.4,0.3,0.4,0.5s-0.3,0.5-0.5,0.5c-0.3,0-0.7,0-0.7,0.2
				c0,0.1,0,0.2,0.2,0.2c0.2,0.1,0.7,0.2,1.2,0.3c0.7,0.2,1.2,0.2,1.4,0.2s0.2-0.1,0.3-0.2c0-0.1,0-0.1-0.1-0.2s-0.4-0.3-0.7-0.4
				h-0.2l0.6-1h0.1c0.5,0.2,0.8,0.4,1,0.8c0.2,0.3,0.3,0.7,0.2,1.1c-0.1,0.5-0.4,0.9-1,1.1C11.4,25.9,11.1,26,10.8,26z M8.5,23.3
				L8.5,23.3L8.5,23.3C8.2,23.5,8,23.7,8,23.9c-0.1,0.3,0,0.7,0.3,1s0.8,0.6,1.5,0.7c0.7,0.2,1.3,0.2,1.8,0c0.4-0.2,0.7-0.5,0.8-0.9
				c0.1-0.3,0-0.6-0.1-0.9c-0.2-0.3-0.4-0.5-0.8-0.6l-0.3,0.5c0.3,0.1,0.5,0.3,0.6,0.3c0.2,0.2,0.2,0.4,0.2,0.5s-0.1,0.4-0.5,0.4
				l0,0c-0.3,0-0.9-0.1-1.4-0.2c-0.6-0.1-1.1-0.3-1.3-0.3c-0.3-0.1-0.4-0.3-0.3-0.5c0-0.5,0.8-0.5,1-0.5c0.1,0,0.2-0.1,0.2-0.2l0,0
				c0-0.1,0-0.2-0.2-0.3l-1-0.2c-0.1,0-0.2,0-0.2,0.2c0,0.1,0,0.1,0.1,0.1l0,0c0.1,0,0.2,0.1,0.2,0.2C8.6,23.2,8.6,23.2,8.5,23.3z"
				/>
		</g>
	</g>
	<g>
		<g>
			<path fill="#140958" d="M11.2,25.3L11.2,25.3l0.1-0.8l0,0L11.2,25.3z M10.5,25.3L10.5,25.3l0.1-0.8l0,0L10.5,25.3z M11.8,25.2
				L11.8,25.2l0.1-0.6l0,0L11.8,25.2z M9.9,25.2L9.9,25.2l0.1-0.8l0,0L9.9,25.2z M9.3,24.9L9.3,24.9l0.1-0.7l0,0L9.3,24.9z
				 M8.8,24.5L8.8,24.5l0.1-0.6l0,0L8.8,24.5z"/>
		</g>
	</g>
	<g>
		<g>
			<rect x="9.8" y="22.7" fill="#140958" width="0" height="0.3"/>
		</g>
	</g>
	<g>
		<g>
			<path fill="#140958" d="M12.2,23.7L12.2,23.7l0.1-0.5l0,0L12.2,23.7z M11.6,23.4L11.6,23.4l0.1-0.5l0,0L11.6,23.4z M9.1,23
				L9.1,23l0.1-0.5l0,0L9.1,23z"/>
		</g>
	</g>
	<g>
		<g>
			<path fill="#FFFFFF" d="M13,28.4c0.1,0,0.2,0.1,0.3,0.2s0.1,0.3,0.1,0.4c0,0.2-0.1,0.3-0.1,0.4c-0.1,0.1-0.2,0.2-0.3,0.1
				c-0.1,0-0.2-0.1-0.3-0.2s-0.1-0.3-0.1-0.4c0-0.2,0.1-0.3,0.1-0.4C12.8,28.5,12.9,28.4,13,28.4L13,28.4z"/>
		</g>
		<g>
			<path fill="#140958" d="M13,29.7L13,29.7c-0.2,0-0.3-0.1-0.4-0.2c-0.1-0.1-0.1-0.3-0.1-0.5s0.1-0.4,0.2-0.5
				c0.1-0.1,0.3-0.2,0.4-0.2c0.2,0,0.3,0.1,0.4,0.2c0.1,0.1,0.1,0.3,0.1,0.5s-0.1,0.4-0.2,0.5C13.3,29.7,13.2,29.7,13,29.7z
				 M13,28.6c-0.1,0-0.1,0-0.2,0.1c-0.1,0.1-0.1,0.2-0.1,0.4c0,0.2,0,0.3,0.1,0.4s0.1,0.1,0.2,0.1c0.1,0,0.2,0,0.2-0.1
				c0.1-0.1,0.1-0.2,0.1-0.4c0-0.2,0-0.3-0.1-0.4C13.2,28.6,13.1,28.6,13,28.6L13,28.6L13,28.6z"/>
		</g>
	</g>
	<g>
		<g>
			<polygon fill="#140958" points="13,28.4 13,29.1 13,29.1 			"/>
		</g>
	</g>
	<g>
		<g>
			<path fill="#FFFFFF" d="M11.8,29.1c0,0.5-0.2,0.9-0.6,1.3c-0.4,0.3-1,0.5-1.7,0.5s-1.3-0.1-1.7-0.4C7.3,30.1,7,29.7,7,29.2
				s0.2-0.9,0.6-1.3c0.4-0.3,1-0.5,1.7-0.5s1.3,0.1,1.7,0.4C11.5,28.1,11.7,28.5,11.8,29.1L11.8,29.1z M11.1,29.1
				c0-0.1,0-0.2-0.1-0.3c-0.1-0.1-0.3-0.1-0.5-0.1s-0.6,0-1.1,0s-0.8,0-1.1,0.1c-0.3,0-0.4,0.1-0.5,0.1C7.7,29,7.7,29,7.7,29.2
				c0,0.1,0,0.2,0.1,0.2c0.1,0.1,0.3,0.1,0.5,0.1s0.6,0,1.1,0s0.8,0,1.1-0.1c0.3,0,0.4-0.1,0.5-0.1C11.1,29.3,11.1,29.2,11.1,29.1
				L11.1,29.1z"/>
		</g>
		<g>
			<path fill="#140958" d="M9.3,31c-0.7,0-1.2-0.1-1.7-0.4s-0.7-0.8-0.7-1.3c0-0.6,0.2-1,0.7-1.4c0.4-0.3,1-0.5,1.8-0.5
				c0.7,0,1.4,0.1,1.8,0.4c0.5,0.3,0.7,0.8,0.7,1.3l0,0c0,0.6-0.2,1-0.7,1.4c-0.4,0.3-1,0.5-1.8,0.5C9.4,31,9.4,31,9.3,31z
				 M9.5,27.5H9.4c-0.7,0-1.2,0.2-1.6,0.5s-0.6,0.7-0.6,1.2s0.2,0.9,0.6,1.1c0.4,0.3,1,0.4,1.7,0.4c0.7,0,1.2-0.2,1.6-0.5
				c0.4-0.3,0.6-0.7,0.6-1.2l0,0c0-0.5-0.2-0.8-0.6-1.1C10.6,27.7,10.1,27.5,9.5,27.5z M8.8,29.7c-0.2,0-0.4,0-0.5,0
				c-0.3,0-0.5-0.1-0.6-0.1c-0.1-0.1-0.2-0.2-0.2-0.4c0-0.2,0.1-0.3,0.2-0.4s0.3-0.1,0.6-0.2c0.3,0,0.6-0.1,1.1-0.1s0.8,0,1.1,0
				s0.5,0.1,0.6,0.1c0.1,0.1,0.2,0.2,0.2,0.4l0,0c0,0.2-0.1,0.3-0.2,0.4c-0.1,0.1-0.3,0.1-0.6,0.2c-0.3,0-0.6,0.1-1.1,0.1
				C9.2,29.7,9,29.7,8.8,29.7z M9.9,28.8c-0.2,0-0.4,0-0.6,0c-0.5,0-0.8,0-1.1,0.1C8,28.9,7.8,29,7.7,29l-0.1,0.1
				c0,0.1,0,0.1,0.1,0.1s0.2,0.1,0.5,0.1s0.6,0,1.1,0s0.8,0,1.1-0.1c0.2,0,0.4-0.1,0.5-0.1L11,29l0,0c0-0.1,0-0.1-0.1-0.1
				s-0.2-0.1-0.5-0.1C10.3,28.8,10.1,28.8,9.9,28.8z"/>
		</g>
	</g>
	<g>
		<g>
			<path fill="#140958" d="M7.8,28.5v-0.6l0,0V28.5L7.8,28.5z M10.9,28.4v-0.7l0,0V28.4L10.9,28.4z M8.4,28.3v-0.8l0,0V28.3
				L8.4,28.3z M10.3,28.2v-0.8l0,0V28.2L10.3,28.2z M9,28.2v-0.8l0,0V28.2L9,28.2z M9.7,28.2v-0.8l0,0V28.2L9.7,28.2z"/>
		</g>
	</g>
	<g>
		<g>
			<path fill="#140958" d="M9.1,30.4v-0.8l0,0V30.4L9.1,30.4z M9.7,30.4v-0.8l0,0V30.4L9.7,30.4z M8.5,30.3v-0.8l0,0V30.3L8.5,30.3z
				 M10.3,30.2v-0.8l0,0V30.2L10.3,30.2z M7.8,30v-0.6l0,0V30L7.8,30z M11,29.9v-0.6l0,0V29.9L11,29.9z"/>
		</g>
	</g>
	<g>
		<g>
			<path fill="#FFFFFF" d="M7.5,34.5l-0.2-1.2c0-0.1,0-0.2-0.1-0.3c0,0,0-0.2,0.1-0.2s0.2,0.1,0.2,0.2c0,0.2,0.2,0.2,0.3,0.2
				l3.2-0.6c0.2,0,0.3-0.2,0.2-0.3c0-0.1,0.1-0.2,0.1-0.2c0.1,0,0.2,0.1,0.2,0.1l0.1,0.3l0.2,1.2c0,0.1,0,0.1,0,0.2
				c0,0.1,0,0.2-0.1,0.2S11.5,34,11.5,34c0-0.1-0.1-0.2-0.3-0.1L10,34l0.1,0.8l1.4-0.3c0.2,0,0.2-0.1,0.2-0.2c0-0.1,0-0.2,0.1-0.2
				s0.2,0.1,0.2,0.1v0.2l0.2,1.2c0,0.1,0,0.2,0.1,0.3c0,0.1,0,0.2-0.1,0.2S12,36.1,12,36s-0.1-0.3-0.3-0.2l-3.2,0.6
				c-0.2,0-0.2,0.1-0.2,0.3c0,0.1,0,0.2-0.1,0.2S8,36.9,8,36.8l-0.1-0.3l-0.2-1.2c0-0.1,0-0.1,0-0.2c0,0,0-0.2,0.1-0.2
				C7.9,34.8,7.9,35,8,35c0.1,0.1,0.2,0.1,0.3,0.1l1.2-0.2l-0.1-0.8l-1.2,0.2C8,34.3,8,34.4,8,34.5c0,0.1,0,0.2-0.2,0.3
				c-0.1,0-0.2,0-0.2-0.1L7.5,34.5L7.5,34.5z"/>
		</g>
		<g>
			<path fill="#140958" d="M8.1,37c-0.1,0-0.2-0.1-0.3-0.2l0,0l-0.3-1.7c0-0.1,0-0.1,0-0.2c0,0-0.1-0.1-0.1-0.2l0,0L7.1,33
				c0-0.1,0-0.3,0.2-0.4l0,0c0.2,0,0.3,0.1,0.3,0.3c0,0,0,0.1,0.2,0.1l3.2-0.6c0.1,0,0.1-0.1,0.1-0.2l0,0c0-0.2,0.1-0.3,0.2-0.3l0,0
				c0.2,0,0.3,0.1,0.4,0.2l0.3,1.7c0,0.1,0,0.1,0,0.2c0.1,0,0.1,0.1,0.1,0.2l0.3,1.7c0,0.1-0.1,0.3-0.3,0.3s-0.3-0.1-0.3-0.2l0,0
				c0,0,0-0.1-0.1-0.1h-0.1l-3.2,0.6c-0.1,0-0.1,0-0.1,0.1s0,0.2,0,0.2C8.3,36.9,8.2,36.9,8.1,37L8.1,37z M8,36.7
				C8.1,36.7,8.1,36.7,8,36.7C8.1,36.7,8.1,36.7,8,36.7C8.1,36.7,8.1,36.7,8,36.7L8,36.7L8,36.7c0.1-0.3,0.1-0.4,0.4-0.5l3.2-0.6
				c0.1,0,0.2,0,0.3,0c0.1,0.1,0.1,0.1,0.2,0.3c0,0,0,0,0.1,0l0,0l-0.3-1.7l0,0v0.1c0,0.1-0.1,0.3-0.3,0.3L10,34.9l-0.2-1l1.5-0.3
				c0.2,0,0.4,0,0.5,0.2c0,0,0,0,0.1,0l0,0l-0.3-1.7l0,0c0,0,0,0,0,0.1c0,0.2-0.1,0.4-0.3,0.5l-3.2,0.6c-0.2,0.1-0.4,0-0.5-0.3
				c0-0.1,0-0.1-0.1-0.1l0,0l0.3,1.7l0,0c0,0,0,0,0-0.1c0,0,0,0,0-0.1c0-0.2,0.2-0.3,0.3-0.3L9.4,34l0.2,1l-1.3,0.2
				c-0.2,0-0.3,0-0.4-0.1c0,0,0,0,0-0.1s0-0.1-0.1-0.1l0,0L8,36.7z M8,34.8c0.1,0,0.1,0.1,0.1,0.1l0,0c0,0,0.1,0,0.2,0l1.1-0.2
				l-0.1-0.5l-1.1,0.2c-0.1,0-0.1,0-0.1,0.1l0,0C8,34.6,8,34.7,8,34.8z M10.1,34.1l0.1,0.5l1.2-0.2c0.1,0,0.1-0.1,0.1-0.1
				c0-0.1,0-0.1,0.1-0.2c-0.1,0-0.1-0.1-0.1-0.1s0-0.1-0.2-0.1L10.1,34.1z"/>
		</g>
	</g>
	<g>
		<g>
			<path fill="#140958" d="M8.5,35.9l-0.2-0.8l0,0L8.5,35.9L8.5,35.9z M9.2,35.8L9,35l0,0L9.2,35.8L9.2,35.8z M9.8,35.7l-0.2-0.8
				l0,0L9.8,35.7L9.8,35.7z M10.4,35.6l-0.2-0.8l0,0L10.4,35.6L10.4,35.6z M11,35.5l-0.2-0.8l0,0L11,35.5L11,35.5z M11.6,35.4
				l-0.2-0.8l0,0L11.6,35.4L11.6,35.4z M8.2,34L8,33.2l0,0L8.2,34L8.2,34z M8.8,33.9l-0.2-0.8l0,0L8.8,33.9L8.8,33.9z M9.4,33.8
				L9.3,33l0,0L9.4,33.8L9.4,33.8z M10,33.7l-0.2-0.8l0,0L10,33.7L10,33.7z M10.6,33.5l-0.2-0.8l0,0L10.6,33.5L10.6,33.5z
				 M11.3,33.4l-0.2-0.8l0,0L11.3,33.4L11.3,33.4z"/>
		</g>
	</g>
	<g>
		<g>
			<path fill="#FFFFFF" d="M10.2,42.2l-0.6-1.1c0-0.1-0.1-0.2-0.1-0.2s-0.1-0.1,0.1-0.2c0.1,0,0.2,0,0.3,0.1s0.2,0.1,0.4,0.1
				l2.9-1.5c0.2-0.1,0.2-0.2,0.1-0.4c0-0.1,0-0.2,0.1-0.2c0.1-0.1,0.2,0,0.2,0.1l0.1,0.2l0.6,1.1c0,0.1,0.1,0.2,0.1,0.2
				c0,0.1,0,0.2-0.1,0.2s-0.2,0-0.2-0.1c-0.1-0.1-0.2-0.2-0.4-0.1l-2.9,1.5c-0.2,0.1-0.2,0.2-0.2,0.3s0.1,0.2-0.1,0.3
				c-0.1,0-0.2,0-0.2-0.1L10.2,42.2L10.2,42.2z"/>
		</g>
		<g>
			<path fill="#140958" d="M10.4,42.7c-0.1,0-0.2-0.1-0.3-0.1l0,0L9.3,41c-0.1-0.1-0.1-0.3,0.1-0.4l0,0c0.2-0.1,0.3,0,0.4,0.2
				c0,0,0.1,0.1,0.2,0l2.9-1.5c0.1-0.1,0.1-0.1,0.1-0.2l0,0c0-0.1,0-0.3,0.1-0.4l0,0c0.2-0.1,0.3,0,0.4,0.1l0.8,1.6
				c0.1,0.1,0,0.3-0.1,0.4c-0.1,0.1-0.3,0-0.4-0.1l0,0c0,0,0-0.1-0.1-0.1h-0.1l-3,1.5c-0.1,0-0.1,0.1-0.1,0.2c0,0.1,0,0.2,0,0.2
				c0,0.1-0.1,0.1-0.2,0.2C10.5,42.7,10.5,42.7,10.4,42.7z M10.4,42.4L10.4,42.4C10.5,42.4,10.5,42.4,10.4,42.4
				C10.5,42.4,10.5,42.3,10.4,42.4L10.4,42.4c0-0.3,0-0.5,0.3-0.6l2.9-1.5c0.1-0.1,0.2-0.1,0.3,0c0.1,0,0.2,0.1,0.2,0.2
				c0,0,0,0,0.1,0l0,0l-0.8-1.6c0,0,0,0-0.1,0c0,0,0,0,0,0.1c0.1,0.2,0,0.4-0.2,0.5L10.2,41c-0.2,0.1-0.4,0-0.5-0.2
				c0-0.1-0.1-0.1-0.1-0.1s0,0,0,0.1L10.4,42.4z"/>
		</g>
	</g>
	<g>
		<g>
			<path fill="#140958" d="M10.6,41.5l-0.4-0.7l0,0L10.6,41.5L10.6,41.5z M11.2,41.3l-0.4-0.7l0,0L11.2,41.3L11.2,41.3z M11.7,41
				l-0.4-0.7l0,0L11.7,41L11.7,41z M12.3,40.7L11.9,40l0,0L12.3,40.7L12.3,40.7z M12.8,40.4l-0.4-0.7l0,0L12.8,40.4L12.8,40.4z
				 M13.4,40.1L13,39.4l0,0L13.4,40.1L13.4,40.1z"/>
		</g>
	</g>
	<g>
		<g>
			<path fill="#FFFFFF" d="M16.8,41.6c0.1-0.1,0.2-0.1,0.3-0.1c0.1,0,0.2,0.1,0.4,0.3c0.1,0.1,0.2,0.3,0.2,0.4c0,0.1,0,0.2-0.1,0.3
				s-0.2,0.1-0.3,0.1c-0.1,0-0.2-0.1-0.4-0.3c-0.1-0.1-0.2-0.3-0.2-0.4C16.6,41.8,16.6,41.7,16.8,41.6L16.8,41.6z"/>
		</g>
		<g>
			<path fill="#140958" d="M17.3,42.7c0,0-0.1,0-0.2,0c-0.2,0-0.3-0.2-0.4-0.3c-0.1-0.2-0.2-0.3-0.2-0.5s0.1-0.3,0.2-0.4l0,0
				c0.1-0.1,0.3-0.1,0.5-0.1s0.3,0.2,0.4,0.3c0.1,0.2,0.2,0.3,0.2,0.5s-0.1,0.3-0.2,0.4C17.5,42.7,17.4,42.7,17.3,42.7z M16.8,41.7
				c-0.1,0.1-0.1,0.1-0.1,0.2c0,0.1,0.1,0.2,0.1,0.3c0.1,0.1,0.2,0.2,0.3,0.2c0.1,0,0.2,0,0.2,0c0.1-0.1,0.1-0.1,0.1-0.2
				c0-0.1-0.1-0.2-0.1-0.3c-0.1-0.1-0.2-0.2-0.3-0.2C17,41.6,16.9,41.6,16.8,41.7L16.8,41.7z"/>
		</g>
	</g>
	<g>
		<g>
			<polygon fill="#140958" points="16.7,41.5 17.2,42.1 17.2,42.1 			"/>
		</g>
	</g>
	<g>
		<g>
			<path fill="#FFFFFF" d="M17.4,44.6c0.1,0.1,0.1,0.2,0,0.3s-0.3,0-0.4-0.1s-0.3-0.1-0.4,0c-1,0.5-1.9,1-2.9,1.6
				c-0.2,0.1-0.2,0.2-0.2,0.3c0.1,0.1,0.1,0.2,0,0.3s-0.2,0-0.3,0c-0.5-0.6-1.1-1.3-1.6-2c-0.1-0.1-0.1-0.2,0-0.3
				c0.2-0.1,0.2,0.1,0.4,0.1c0.1,0,0.2-0.1,0.2-0.2c0.7-0.8,1.4-1.6,2.2-2.4c0.1-0.1,0.2-0.2,0.1-0.3c0-0.1-0.2-0.3,0-0.5
				c0.1-0.1,0.2,0,0.2,0.1c0.4,0.4,0.7,0.9,1.1,1.4c0.1,0.1,0,0.2,0,0.2c-0.2,0.1-0.2,0-0.4-0.1c-0.1-0.1-0.2,0-0.3,0.1l-0.6,0.6
				l0.5,0.6c0.2-0.1,0.5-0.3,0.7-0.4c0.1,0,0.2-0.1,0.2-0.2c0-0.2-0.2-0.3,0-0.4c0.1,0,0.2,0,0.2,0C16.6,43.6,17,44.1,17.4,44.6
				L17.4,44.6z M14.7,44.5L14.3,44L13,45.4l0.1,0.1L14.7,44.5L14.7,44.5z"/>
		</g>
		<g>
			<path fill="#140958" d="M13.5,47c-0.1,0-0.2,0-0.2-0.1l0,0l-1.6-2c-0.1-0.1-0.1-0.3,0-0.5l0,0c0.2-0.1,0.3,0,0.4,0h0.1l0,0
				l0.1-0.1l2.2-2.5c0,0,0.1-0.1,0.1-0.2l0,0v-0.1c-0.1-0.1-0.2-0.3,0-0.5l0,0c0.2-0.1,0.3,0,0.4,0.1l1.1,1.4c0.1,0.1,0.1,0.2,0,0.3
				c0.1,0,0.2,0,0.3,0.1l1.1,1.4c0.1,0.1,0.1,0.2,0.1,0.2c0,0.1-0.1,0.2-0.1,0.2c-0.1,0.1-0.3,0.1-0.5-0.1c-0.1,0-0.1,0-0.2,0
				l-2.9,1.6c-0.1,0.1-0.1,0.1-0.1,0.1l0,0c0.1,0.1,0.1,0.3-0.1,0.4C13.6,47,13.5,47,13.5,47z M13.4,46.7
				C13.5,46.8,13.5,46.8,13.4,46.7c0.1,0,0.1,0,0.1,0C13.5,46.8,13.5,46.7,13.4,46.7L13.4,46.7c-0.1-0.3,0-0.4,0.2-0.6l2.8-1.6
				c0.1-0.1,0.3-0.2,0.5,0l0,0c0.1,0.1,0.1,0.1,0.2,0.1l0,0l0,0L16,43.2c0,0,0,0-0.1,0l0,0c0,0,0,0,0,0.1s0.1,0.1,0.1,0.2
				c0,0.2-0.1,0.3-0.2,0.4L15,44.4l-0.7-0.8l0.7-0.7c0.1-0.2,0.3-0.2,0.5-0.1c0.1,0,0.1,0.1,0.2,0.1c0,0,0,0,0.1,0.1l0,0v-0.1
				l-1.1-1.4c0,0,0,0-0.1-0.1c0,0,0,0.1,0,0.2c0,0.1,0.1,0.1,0.1,0.2c0,0.2-0.1,0.3-0.2,0.4l-2.2,2.5c-0.1,0.1-0.2,0.2-0.3,0.2
				s-0.2-0.1-0.2-0.1s0,0-0.1,0l0,0v0.1L13.4,46.7z M14.8,43.6l0.4,0.5l0.6-0.4c0.1-0.1,0.1-0.1,0.1-0.1l0,0l0,0v-0.1
				c0-0.1-0.1-0.2-0.1-0.3c-0.1,0-0.2-0.1-0.2-0.1L15.5,43c0,0-0.1,0-0.1,0.1L14.8,43.6z M13,45.7l-0.2-0.3l1.5-1.6l0.6,0.7L13,45.7
				z M14.2,44.2l-0.9,0.9l1.1-0.7L14.2,44.2z"/>
		</g>
	</g>
	<g>
		<g>
			<path fill="#140958" d="M12.8,45l-0.4-0.5l0,0L12.8,45L12.8,45z M13.2,44.5L12.8,44l0,0L13.2,44.5L13.2,44.5z M13.6,44.1
				l-0.4-0.5l0,0L13.6,44.1L13.6,44.1z M14.1,43.6l-0.4-0.5l0,0L14.1,43.6L14.1,43.6z M14.5,43.1l-0.4-0.5l0,0L14.5,43.1L14.5,43.1z
				 M14.9,42.7l-0.4-0.5l0,0L14.9,42.7L14.9,42.7z"/>
		</g>
	</g>
	<g>
		<g>
			<path fill="#140958" d="M13.5,46l-0.4-0.5l0,0L13.5,46L13.5,46z M14.1,45.7l-0.4-0.5l0,0L14.1,45.7L14.1,45.7z M14.6,45.3
				l-0.4-0.5l0,0L14.6,45.3L14.6,45.3z M15.2,45l-0.4-0.5l0,0L15.2,45L15.2,45z M15.7,44.7l-0.4-0.5l0,0L15.7,44.7L15.7,44.7z
				 M16.3,44.4l-0.4-0.5l0,0L16.3,44.4L16.3,44.4z"/>
		</g>
	</g>
	<g>
		<g>
			<path fill="#FFFFFF" d="M20.7,47.3c0,0.1,0.1,0.1,0,0.2c-0.1,0.1-0.2,0.1-0.3,0c-0.1-0.1-0.2,0-0.3,0.2c-0.3,0.4-0.6,0.8-0.8,1.1
				l0.1,0.1c0.1,0.1,0.1,0.2,0,0.2l-0.1,0.2c-0.1,0.1-0.2,0.1-0.2,0L19,49.2c-0.2,0.3-0.5,0.7-0.7,1c-0.1,0.2-0.1,0.3-0.1,0.4
				c0.1,0.1,0.2,0.2,0.1,0.3c0,0.1-0.1,0.1-0.2,0l-1.3-1c-0.4-0.3-0.6-0.7-0.7-1.3c0-0.5,0.2-1.1,0.6-1.6s0.9-0.9,1.4-1.1
				c0.5-0.2,1-0.1,1.4,0.3C19.8,46.6,20.2,47,20.7,47.3L20.7,47.3z M17.9,48.5L17.9,48.5c-0.1-0.1-0.2-0.2-0.1-0.3l0.1-0.2
				c0.1-0.1,0.2-0.1,0.2,0l0.1,0.1L19,47c-0.1-0.1-0.3-0.1-0.4-0.1s-0.3,0.1-0.5,0.2c-0.2,0.2-0.4,0.4-0.7,0.8
				c-0.3,0.4-0.5,0.7-0.6,0.9s-0.1,0.4-0.1,0.5s0.1,0.2,0.2,0.3L17.9,48.5L17.9,48.5z"/>
		</g>
		<g>
			<path fill="#140958" d="M18,51.1c-0.1,0-0.1,0-0.2,0l0,0l-1.3-1c-0.5-0.3-0.7-0.8-0.7-1.4c0-0.6,0.2-1.1,0.6-1.7
				c0.4-0.6,0.9-0.9,1.4-1.1c0.5-0.2,1.1-0.1,1.6,0.3l1.4,1l0,0c0.1,0.1,0.1,0.2,0,0.4c-0.2,0.2-0.4,0.1-0.5,0l-0.1,0.1l-0.8,1l0,0
				c0.1,0.1,0.2,0.3,0.1,0.4l-0.1,0.2c0,0.1-0.1,0.1-0.2,0.1s-0.2,0-0.2-0.1l0,0l-0.7,0.9c-0.1,0.1-0.1,0.1-0.1,0.2l0,0
				c0.1,0.1,0.2,0.2,0.1,0.4C18.2,51.1,18.1,51.1,18,51.1z M18,50.9L18,50.9C18.1,50.8,18.1,50.8,18,50.9C18.1,50.8,18,50.8,18,50.9
				L18,50.9L18,50.9c-0.1-0.3-0.1-0.4,0.1-0.6l0.8-1.1l0.2,0.2l0,0l0,0l0.1-0.2c0,0,0,0,0-0.1L19,48.8l0.9-1.2
				c0.2-0.3,0.4-0.3,0.5-0.2s0.2,0.1,0.2,0l0,0l-1.3-1c-0.4-0.3-0.9-0.4-1.3-0.3c-0.5,0.1-0.9,0.5-1.3,1s-0.6,1.1-0.6,1.6
				s0.2,0.9,0.6,1.2L18,50.9z M17.2,49.7l-0.1-0.1c-0.1-0.1-0.2-0.2-0.3-0.4c0-0.1,0-0.3,0.1-0.6c0.1-0.2,0.3-0.5,0.6-0.9
				c0.3-0.4,0.5-0.6,0.7-0.8s0.4-0.3,0.5-0.3c0.2,0,0.3,0,0.5,0.2l0.1,0.1l-1,1.3l-0.2-0.1c0,0,0,0-0.1,0l-0.1,0.2l0,0l0,0l0.2,0.1
				L17.2,49.7z M18.7,47L18.7,47c-0.1,0-0.2,0-0.4,0.2c-0.2,0.2-0.4,0.4-0.7,0.8c-0.3,0.4-0.4,0.6-0.5,0.9C17,49,17,49.1,17,49.2
				c0,0.1,0,0.1,0.1,0.2l0.6-0.8c0,0-0.1-0.1-0.1-0.2c0-0.1,0-0.2,0.1-0.2l0.1-0.2c0.1-0.1,0.3-0.2,0.4-0.1l0.7-0.9
				C18.8,47,18.8,47,18.7,47z"/>
		</g>
	</g>
	<g>
		<g>
			<path fill="#140958" d="M17.8,50l-0.7-0.5l0,0L17.8,50L17.8,50z M18.2,49.5L17.5,49l0,0L18.2,49.5L18.2,49.5z M18.6,49l-0.7-0.5
				l0,0L18.6,49L18.6,49z M16.4,49l-0.5-0.4l0,0L16.4,49L16.4,49z M19,48.5L18.3,48l0,0L19,48.5L19,48.5z M16.7,48.4l-0.6-0.5l0,0
				L16.7,48.4L16.7,48.4z M19.3,48l-0.7-0.5l0,0L19.3,48L19.3,48z M17,47.8l-0.7-0.5l0,0L17,47.8L17,47.8z M19.7,47.5L19.1,47l0,0
				L19.7,47.5L19.7,47.5z M17.4,47.3l-0.7-0.5l0,0L17.4,47.3L17.4,47.3z M17.8,46.9l-0.7-0.5l0,0L17.8,46.9L17.8,46.9z M18.4,46.5
				l-0.6-0.4l0,0L18.4,46.5L18.4,46.5z"/>
		</g>
	</g>
	<g>
		<g>
			<path fill="#FFFFFF" d="M13.7,21.2c0,0.1-0.2,0.1-0.2,0.1c-0.1-0.1-0.1-0.3,0-0.4c0-0.2,0-0.3-0.1-0.4c-0.8-0.7-1.6-1.5-2.4-2.2
				c-0.2-0.2-0.3-0.1-0.3-0.1c-0.1,0.1-0.2,0.2-0.3,0.1s-0.1-0.2,0-0.3c0.4-0.7,0.9-1.4,1.4-2.1c0.1-0.1,0.2-0.1,0.3-0.1
				c0.2,0.1,0,0.3,0,0.4s0.1,0.1,0.2,0.2c1,0.4,2,0.9,3,1.3c0.1,0,0.2,0.1,0.3,0c0.1,0,0.2-0.3,0.4-0.2c0.1,0.1,0.1,0.1,0,0.3
				c-0.3,0.5-0.6,1-1,1.5c-0.1,0.1-0.2,0.1-0.2,0.1c-0.2-0.1,0-0.2,0-0.4c0-0.1,0-0.2-0.2-0.3l-0.8-0.4L13.3,19
				c0.2,0.2,0.4,0.4,0.6,0.6c0.1,0.1,0.2,0.1,0.3,0.1s0.2-0.3,0.4-0.2c0.1,0.1,0.1,0.1,0,0.2C14.4,20.2,14,20.7,13.7,21.2L13.7,21.2
				z M12.9,18.6l0.4-0.5l-1.7-0.8l-0.1,0.1L12.9,18.6L12.9,18.6z"/>
		</g>
		<g>
			<path fill="#140958" d="M13.6,21.5c-0.1,0-0.1,0-0.2-0.1c-0.1-0.1-0.2-0.2,0-0.5c0-0.1,0-0.1-0.1-0.2l-2.4-2.2
				c-0.1-0.1-0.1-0.1-0.2-0.1l0,0c-0.1,0.1-0.2,0.2-0.4,0.1c-0.1-0.1-0.2-0.3-0.1-0.4l0,0l1.4-2.1c0.1-0.2,0.3-0.2,0.5-0.1l0,0
				c0.2,0.1,0.1,0.3,0.1,0.4v0.1l0,0c0,0,0.1,0,0.1,0.1l3,1.3c0.1,0,0.2,0.1,0.2,0l0,0c0,0,0,0,0.1-0.1s0.2-0.3,0.5-0.1l0,0
				c0.2,0.2,0.1,0.3,0,0.4l-1,1.5c-0.1,0.1-0.2,0.1-0.3,0.1c0,0.1,0,0.2,0,0.3l-1,1.5C13.8,21.4,13.7,21.4,13.6,21.5
				C13.6,21.4,13.6,21.5,13.6,21.5z M10.7,18.1c0.1,0,0.2,0.1,0.3,0.2l2.4,2.2c0.1,0.1,0.3,0.3,0.2,0.5l0,0c0,0.1-0.1,0.2,0,0.2l0,0
				l0,0l1-1.5c0,0,0,0,0-0.1l0,0c0,0,0,0-0.1,0.1c0,0.1-0.1,0.1-0.2,0.1c-0.1,0.1-0.3,0-0.4-0.1L13.1,19l0.6-0.9l0.9,0.4
				c0.2,0.1,0.3,0.2,0.3,0.4c0,0.1,0,0.1-0.1,0.2v0.1l0,0h0.1l1-1.4v-0.1c0,0-0.1,0-0.1,0.1c0,0-0.1,0.1-0.2,0.1
				c-0.2,0.1-0.3,0-0.4,0l-3-1.3c-0.1,0-0.2-0.1-0.3-0.2c0-0.1,0-0.2,0-0.2v-0.1l0,0h-0.1l-1.4,2.1c0,0.1,0,0.1,0,0.1l0,0
				c0,0,0,0,0.1-0.1l0,0C10.6,18.1,10.7,18.1,10.7,18.1z M13.5,19l0.6,0.5c0.1,0.1,0.1,0.1,0.1,0.1l0,0c0,0,0.1,0,0.1-0.1
				c0,0,0.1-0.1,0.2-0.2c0-0.1,0-0.2,0-0.3v-0.1c0,0,0-0.1-0.1-0.1l-0.7-0.3L13.5,19z M12.9,18.8l-1.7-1.4l0.2-0.3l2,0.9L12.9,18.8z
				 M11.9,17.6l1,0.9l0.2-0.3L11.9,17.6z"/>
		</g>
	</g>
	<g>
		<g>
			<path fill="#140958" d="M14.8,18.3L14.8,18.3l0.3-0.6l0,0L14.8,18.3z M14.2,18.1L14.2,18.1l0.3-0.6l0,0L14.2,18.1z M13.6,17.8
				L13.6,17.8l0.3-0.6l0,0L13.6,17.8z M13.1,17.5L13.1,17.5l0.3-0.6l0,0L13.1,17.5z M12.5,17.3L12.5,17.3l0.3-0.6l0,0L12.5,17.3z
				 M11.9,17L11.9,17l0.3-0.6l0,0L11.9,17z"/>
		</g>
	</g>
	<g>
		<g>
			<path fill="#140958" d="M13.6,20.1L13.6,20.1l0.3-0.6l0,0L13.6,20.1z M13.1,19.7L13.1,19.7l0.3-0.6l0,0L13.1,19.7z M12.6,19.3
				L12.6,19.3l0.3-0.6l0,0L12.6,19.3z M12.2,18.9L12.2,18.9l0.3-0.6l0,0L12.2,18.9z M11.7,18.5L11.7,18.5l0.3-0.6l0,0L11.7,18.5z
				 M11.2,18L11.2,18l0.3-0.6l0,0L11.2,18z"/>
		</g>
	</g>
	<g>
		<g>
			<path fill="#FFFFFF" d="M16.6,16.9c-0.1,0-0.1,0.1-0.2,0c-0.2-0.1,0-0.3,0.1-0.4s0-0.2-0.1-0.3c-0.7-0.8-1.5-1.6-2.2-2.4
				c-0.1-0.1-0.2-0.2-0.2-0.2c-0.1,0-0.2,0.2-0.4,0.1c-0.1-0.1,0-0.1,0-0.2l1-1c0.8,0.4,1.6,0.8,2.5,1.2c0-0.1-0.5-0.6-0.7-0.7
				c-0.2-0.2-0.4-0.4-0.6-0.7c-0.1-0.1-0.2-0.2-0.4-0.1c-0.1,0.1-0.3,0.2-0.3,0c0,0,0-0.1,0.1-0.2c0.3-0.3,0.6-0.6,0.9-0.9
				c0.1,0,0.1-0.1,0.2,0s0.1,0.2,0,0.3s0,0.2,0.1,0.4l2.7,2.9l-0.7,0.6c-1-0.5-1.9-0.9-2.9-1.4c0.2,0.2,0.8,0.9,0.9,1
				c0.2,0.2,0.4,0.4,0.6,0.7c0.1,0.1,0.2,0.2,0.3,0.1c0.1-0.1,0.2-0.2,0.4-0.1c0.1,0.1,0,0.2,0,0.2C17.2,16.3,16.9,16.6,16.6,16.9
				L16.6,16.9z"/>
		</g>
		<g>
			<path fill="#140958" d="M16.5,17.1c-0.1,0-0.1,0-0.2-0.1c-0.2-0.2-0.1-0.4,0-0.5l0,0c0,0,0-0.1-0.1-0.2L14.1,14
				C14,13.9,14,13.9,14,13.9s0,0-0.1,0c-0.1,0.1-0.3,0.2-0.4,0l0,0c0-0.1-0.1-0.2,0-0.4l0,0l1.1-1h0.1c0.6,0.3,1.1,0.6,1.8,0.9
				l0.2,0.1l-0.1-0.1c-0.1-0.1-0.1-0.1-0.2-0.2l-0.6-0.7c-0.1-0.1-0.2-0.1-0.2-0.1c-0.1,0.1-0.2,0.1-0.3,0.1s-0.1-0.1-0.2-0.2
				c0-0.1,0-0.3,0.1-0.4l0.9-0.8c0.1-0.1,0.3-0.1,0.4,0l0,0c0.1,0.1,0.1,0.2,0.1,0.2c0,0.1,0,0.2-0.1,0.3c0,0.1,0.1,0.1,0.1,0.2
				l2.8,3l-0.8,0.8h-0.1c-0.7-0.3-1.4-0.7-2.2-1l-0.2-0.1c0.1,0.1,0.2,0.2,0.3,0.3l0.8,0.9c0.1,0.1,0.1,0.1,0.2,0.1l0,0
				c0.1-0.1,0.3-0.2,0.5,0l0,0c0.1,0.1,0.1,0.3,0,0.4l0,0l-1,0.9C16.6,17.1,16.5,17.1,16.5,17.1z M16.5,16.8L16.5,16.8L16.5,16.8
				l1-0.8c0,0,0,0,0-0.1c0,0,0,0-0.1,0.1h-0.1c-0.1,0-0.3,0.1-0.5-0.2L16,15c-0.2-0.2-0.6-0.6-0.7-0.8l0.2-0.2l0.8,0.4
				c0.7,0.3,1.4,0.6,2.1,1l0.5-0.5L16.2,12c-0.3-0.3-0.2-0.5-0.1-0.5l0,0c0.1-0.1,0.1-0.1,0.1-0.1l0,0l0,0l-0.9,0.9c0,0,0,0,0,0.1
				l0,0c0,0,0,0,0.1-0.1l0,0c0.2-0.1,0.4-0.1,0.5,0.2l0.6,0.7c0,0,0.1,0.1,0.2,0.2c0.3,0.4,0.5,0.5,0.5,0.6L17,13.9l-0.7-0.4
				c-0.6-0.3-1.1-0.5-1.7-0.8l-1,0.9l0,0c0,0,0,0,0.1,0s0.1-0.1,0.2-0.1c0.1,0,0.2,0.1,0.3,0.2l2.2,2.4c0.2,0.2,0.2,0.4,0.1,0.5l0,0
				c0,0,0,0,0,0.1C16.5,16.7,16.5,16.8,16.5,16.8L16.5,16.8z M15.2,12.2L15.2,12.2L15.2,12.2z"/>
		</g>
	</g>
	<g>
		<g>
			<path fill="#140958" d="M16.7,15.9L16.7,15.9l0.2-0.2l0,0L16.7,15.9z M16.2,15.5L16.2,15.5l0.2-0.2l0,0L16.2,15.5z M15.8,15
				L15.8,15l0.2-0.2l0,0L15.8,15z M15.4,14.5L15.4,14.5l0.2-0.2l0,0L15.4,14.5z M15,14.1L15,14.1l0.9-0.8l0,0L15,14.1z M14.5,13.6
				L14.5,13.6l0.7-0.7l0,0L14.5,13.6z"/>
		</g>
	</g>
	<g>
		<g>
			<path fill="#140958" d="M18.1,14.6L18.1,14.6l0.4-0.4l0,0L18.1,14.6z M17.4,14.4L17.4,14.4l0.6-0.6l0,0L17.4,14.4z M17.4,13.5
				L17.4,13.5l0.2-0.3l0,0L17.4,13.5z M17,13.1L17,13.1l0.2-0.3l0,0L17,13.1z M16.5,12.6L16.5,12.6l0.2-0.3l0,0L16.5,12.6z
				 M16.1,12.2L16.1,12.2l0.2-0.3l0,0L16.1,12.2z"/>
		</g>
	</g>
	<g>
		<g>
			<path fill="#140958" d="M16.8,14.1L16.8,14.1l0.3-0.3l0,0L16.8,14.1z M16,13.9L16,13.9l0.4-0.4l0,0L16,13.9z"/>
		</g>
	</g>
	<g>
		<g>
			<path fill="#FFFFFF" d="M22.3,10.8c-0.1-0.2-0.2-0.2-0.3-0.2c-0.1,0-0.2,0.1-0.3-0.1c-0.1-0.1,0-0.2,0.1-0.2L23,9.7
				c0.2-0.1,0.4-0.2,0.4-0.1c0.1,0.1,0,0.2-0.1,0.3s-0.1,0.1,0,0.3s0.1,0.3,0.2,0.4c0.1,0.3,0.1,0.5,0,0.7c0,0.2-0.1,0.4-0.3,0.6
				c-0.1,0.2-0.3,0.3-0.6,0.5c-0.5,0.3-0.9,0.3-1.4,0.1s-0.9-0.6-1.2-1.3c-0.4-0.7-0.5-1.2-0.5-1.7s0.2-0.8,0.6-1.1
				c0.3-0.1,0.5-0.1,0.8,0c0.1,0,0.1,0,0.1-0.1s0-0.1,0-0.2c0-0.1,0-0.3,0.2-0.4s0.3,0,0.4,0.1c0.2,0.3,0.3,0.6,0.5,0.9
				c0.1,0.2,0,0.4-0.2,0.5s-0.4,0-0.5-0.1c-0.1-0.2-0.2-0.2-0.3-0.3c-0.1-0.1-0.3-0.2-0.5-0.1c-0.2,0.1-0.2,0.3-0.1,0.5
				s0.2,0.6,0.5,1.1c0.2,0.4,0.4,0.7,0.6,0.9c0.1,0.2,0.3,0.4,0.3,0.4c0.1,0,0.2,0.1,0.3,0C22.6,11.6,22.5,11.2,22.3,10.8L22.3,10.8
				z"/>
		</g>
		<g>
			<path fill="#140958" d="M21.8,12.7c-0.2,0-0.5,0-0.7-0.1c-0.5-0.2-0.9-0.7-1.3-1.4s-0.6-1.3-0.5-1.8c0-0.5,0.3-0.9,0.7-1.2
				c0.3-0.2,0.5-0.1,0.8,0l0,0l0,0c-0.1-0.2,0-0.4,0.2-0.5s0.4-0.1,0.6,0.1l0,0l0.5,1c0.1,0.3,0,0.5-0.2,0.6s-0.5,0.1-0.6-0.1l0,0
				c-0.1-0.1-0.1-0.2-0.2-0.2L21,9c-0.1-0.1-0.2-0.1-0.3-0.1c-0.1,0.1-0.1,0.2-0.1,0.3l0,0c0.1,0.2,0.2,0.5,0.5,1.1
				c0.2,0.4,0.4,0.7,0.5,0.9c0.1,0.1,0.2,0.3,0.3,0.4c0.1,0,0.1,0,0.2,0l0.1-0.1c0-0.2,0-0.4-0.2-0.6l0,0c-0.1-0.1-0.1-0.1-0.2-0.1
				s-0.3,0.1-0.5-0.1c-0.1-0.1,0-0.3,0.1-0.4l0,0l1.3-0.7c0.2-0.1,0.3-0.2,0.5-0.1c0.1,0,0.1,0,0.2,0.1c0.1,0.2-0.1,0.4-0.2,0.5l0,0
				v0.1c0.1,0.2,0.1,0.3,0.2,0.5c0.1,0.3,0.1,0.5,0,0.8c0,0.3-0.1,0.5-0.3,0.7c-0.1,0.2-0.3,0.4-0.6,0.5
				C22.4,12.7,22.1,12.7,21.8,12.7z M20.4,8.4c-0.1,0-0.2,0-0.3,0.1c-0.4,0.2-0.5,0.5-0.6,0.9c0,0.5,0.1,1,0.5,1.7
				c0.3,0.6,0.7,1,1.2,1.2c0.4,0.2,0.9,0.2,1.3-0.1c0.2-0.1,0.4-0.3,0.5-0.4c0.1-0.2,0.2-0.3,0.2-0.6c0-0.2,0-0.4,0-0.7
				c0-0.1-0.1-0.3-0.1-0.4C23,9.9,23,9.8,23.2,9.7l0,0c0.1-0.1,0.1-0.1,0.1-0.1s-0.1,0-0.3,0.1l-1.3,0.7l0,0c0,0,0,0,0.1,0l0,0
				c0.3-0.1,0.4,0.1,0.5,0.3c0.2,0.3,0.2,0.6,0.2,0.8c0,0.1-0.1,0.2-0.2,0.3s-0.3,0.1-0.4,0s-0.2-0.2-0.4-0.4
				c-0.1-0.2-0.3-0.5-0.6-0.9c-0.3-0.5-0.4-0.9-0.5-1.1l0,0c-0.1-0.3,0-0.6,0.2-0.7c0.2-0.1,0.5,0,0.6,0.1l0,0
				C21.4,9,21.4,9,21.5,9.2c0.1,0.1,0.2,0.1,0.3,0c0.1,0,0.2-0.2,0.1-0.3L21.4,8c-0.1-0.1-0.2-0.1-0.3-0.1C21,7.9,21,8,21,8.1l0,0
				c0,0.1,0,0.1,0,0.2l0,0l0,0c0,0.1-0.1,0.2-0.2,0.2l0,0l0,0C20.7,8.5,20.5,8.4,20.4,8.4z"/>
		</g>
	</g>
	<g>
		<g>
			<path fill="#140958" d="M21.5,12.1L21.5,12.1l0.5-0.3l0,0L21.5,12.1z M20.9,11.7L20.9,11.7l0.7-0.4l0,0L20.9,11.7z M20.5,11.2
				L20.5,11.2l0.7-0.4l0,0L20.5,11.2z M20.2,10.7L20.2,10.7l0.7-0.4l0,0L20.2,10.7z M20,10.1L20,10.1l0.6-0.4l0,0L20,10.1z M20,9.4
				L20,9.4l0.5-0.3l0,0L20,9.4z"/>
		</g>
	</g>
	<g>
		<g>
			<path fill="#140958" d="M22.8,11.4L22.8,11.4l0.6-0.4l0,0L22.8,11.4z M22.7,10.7L22.7,10.7l0.6-0.4l0,0L22.7,10.7z M21.8,9.1
				L21.8,9.1L22,8.9l0,0L21.8,9.1z M21.4,8.6L21.4,8.6l0.4-0.2l0,0L21.4,8.6z"/>
		</g>
	</g>
	<g>
		<g>
			<path fill="#FFFFFF" d="M24.1,6.7l1.2-0.3c0.1,0,0.2,0,0.3-0.1c0,0,0.2,0,0.2,0.1s0,0.2-0.2,0.2c-0.2,0.1-0.2,0.2-0.1,0.3
				l0.8,3.2c0.1,0.2,0.2,0.2,0.3,0.2c0.1,0,0.2,0,0.2,0.1s0,0.2-0.1,0.2l-0.3,0.1L25.2,11c-0.1,0-0.2,0-0.3,0.1
				c-0.1,0-0.2,0-0.2-0.1s0-0.2,0.1-0.2s0.2-0.1,0.2-0.3l-0.8-3.2c0-0.2-0.1-0.2-0.3-0.2c-0.1,0-0.2,0-0.2-0.1s0-0.2,0.1-0.2
				L24.1,6.7L24.1,6.7z"/>
		</g>
		<g>
			<path fill="#140958" d="M25,11.4c-0.1,0-0.3-0.1-0.3-0.2c0-0.1,0.1-0.3,0.2-0.4l0,0c0,0,0.1,0,0.1-0.1v-0.1l-0.8-3.2
				c0-0.1,0-0.1-0.1-0.1s-0.2,0-0.2,0c-0.1,0-0.1-0.1-0.1-0.2c0-0.2,0-0.3,0.2-0.4l0,0l1.7-0.5c0.1,0,0.3,0,0.4,0.2l0,0
				c0,0.2-0.1,0.3-0.3,0.4c0,0-0.1,0,0,0.2l0.8,3.2c0,0.1,0.1,0.1,0.2,0.1l0,0c0.2,0,0.3,0.1,0.3,0.2l0,0c0,0.2-0.1,0.3-0.2,0.4
				L25,11.4L25,11.4z M25,11C25,11,24.9,11,25,11C25,11.1,25,11.1,25,11l1.7-0.4l0,0c0,0,0,0-0.1,0c-0.2,0.1-0.4-0.1-0.5-0.3
				l-0.8-3.2c-0.1-0.2,0-0.4,0.2-0.5c0.1,0,0.1,0,0.1-0.1l0,0l-1.7,0.4l0,0l0,0c0,0,0,0,0.1,0l0,0l0,0c0.2,0,0.4,0.1,0.4,0.3
				l0.8,3.2c0,0.1,0,0.2,0,0.3C25.2,10.9,25.1,11,25,11z"/>
		</g>
	</g>
	<g>
		<g>
			<path fill="#140958" d="M25.5,10.4L25.5,10.4l0.8-0.2l0,0L25.5,10.4z M25.3,9.8L25.3,9.8l0.8-0.2l0,0L25.3,9.8z M25.2,9.2
				L25.2,9.2L26,8.9l0,0L25.2,9.2z M25,8.6L25,8.6l0.8-0.2l0,0L25,8.6z M24.9,8L24.9,8l0.8-0.2l0,0L24.9,8z M24.7,7.3L24.7,7.3
				l0.8-0.2l0,0L24.7,7.3z"/>
		</g>
	</g>
	<g>
		<g>
			<path fill="#FFFFFF" d="M28.1,10.3c-0.1,0-0.2,0-0.2-0.1c0-0.2,0.2-0.2,0.3-0.2c0.2-0.1,0.2-0.2,0.2-0.3c0.1-1.1,0.2-2.2,0.3-3.2
				c0-0.2,0-0.3-0.1-0.3s-0.2,0-0.2-0.2c0-0.1,0.1-0.2,0.2-0.2c0.8-0.1,1.7-0.1,2.5-0.2c0.1,0,0.2,0.1,0.2,0.2
				c0,0.2-0.2,0.1-0.3,0.3c-0.1,0.1,0,0.2,0,0.3c0.3,1.1,0.5,2.1,0.8,3.2c0,0.1,0.1,0.2,0.2,0.3c0.1,0.1,0.4,0,0.4,0.2
				c0,0.1-0.1,0.1-0.2,0.1c-0.6,0-1.2,0.1-1.7,0.1c-0.1,0-0.2-0.1-0.2-0.1c0-0.2,0.2-0.2,0.3-0.2c0.1-0.1,0.1-0.2,0.1-0.3l-0.2-0.8
				L29.7,9c0,0.3,0,0.6-0.1,0.9c0,0.1,0,0.2,0.1,0.3s0.4,0,0.4,0.2c0,0.1-0.1,0.2-0.2,0.2C29.3,10.3,28.7,10.3,28.1,10.3L28.1,10.3z
				 M29.7,8.1h0.6l-0.4-1.9h-0.1L29.7,8.1L29.7,8.1z"/>
		</g>
		<g>
			<path fill="#140958" d="M28.1,10.5c-0.1,0-0.1,0-0.2-0.1s-0.1-0.1-0.1-0.2c0-0.1,0.1-0.3,0.4-0.4c0.1,0,0.1-0.1,0.1-0.2l0.3-3.2
				c0-0.2,0-0.2,0-0.2l0,0c-0.1,0-0.3,0-0.3-0.3c0-0.2,0.1-0.3,0.3-0.3l0,0L31,5.4c0.2,0,0.4,0.1,0.4,0.3l0,0c0,0.2-0.2,0.3-0.3,0.3
				H31l0,0v0.1l0.8,3.2c0,0.1,0,0.2,0.1,0.2l0,0H32c0.1,0,0.3,0,0.4,0.3l0,0l0,0c0,0.2-0.2,0.3-0.3,0.3l-1.7,0.1
				c-0.1,0-0.2,0-0.3-0.1c0,0.1-0.1,0.1-0.2,0.2L28.1,10.5L28.1,10.5z M28.5,5.9L28.5,5.9h0.1c0.2,0,0.3,0.2,0.2,0.5l-0.3,3.2
				c0,0.1,0,0.4-0.3,0.5l0,0c-0.1,0-0.2,0-0.2,0.1l0,0l0,0l1.8-0.1c0,0,0,0,0-0.1l0,0h-0.1c-0.1,0-0.2,0-0.2-0.1
				c-0.1-0.1-0.2-0.2-0.2-0.4l0.1-1l1.1-0.1l0.2,1c0.1,0.2,0,0.4-0.2,0.4c-0.1,0-0.1,0.1-0.2,0.1h-0.1l0,0c0,0,0,0,0.1,0L32,9.8h0.1
				c0,0,0-0.1-0.1-0.1s-0.1,0-0.2-0.1c-0.2-0.1-0.2-0.3-0.2-0.4L30.8,6c0-0.1-0.1-0.2,0-0.4c0.1-0.1,0.1-0.1,0.2-0.1h0.1l0,0L31,5.4
				L28.5,5.9L28.5,5.9L28.5,5.9L28.5,5.9z M29.7,8.8v0.7c0,0.1,0,0.1,0,0.2l0,0h0.1c0.1,0,0.2,0,0.3,0.1c0.1-0.1,0.2-0.1,0.2-0.1
				h0.1c0,0,0.1,0,0-0.2l-0.2-0.7H29.7z M29.5,8.3l0.1-2.2H30l0.5,2.1L29.5,8.3z M29.9,6.7L29.8,8h0.3L29.9,6.7z"/>
		</g>
	</g>
	<g>
		<g>
			<path fill="#140958" d="M31,9.5L31,9.5l0.6-0.1l0,0L31,9.5z M30.9,8.9L30.9,8.9l0.6-0.1l0,0L30.9,8.9z M30.8,8.3L30.8,8.3
				l0.6-0.1l0,0L30.8,8.3z M30.6,7.7L30.6,7.7l0.6-0.1l0,0L30.6,7.7z M30.5,7.1L30.5,7.1L31.1,7l0,0L30.5,7.1z M30.3,6.4L30.3,6.4
				H31l0,0H30.3z"/>
		</g>
	</g>
	<g>
		<g>
			<path fill="#140958" d="M28.9,9.7L28.9,9.7l0.6-0.1l0,0L28.9,9.7z M28.9,9.1L28.9,9.1L29.5,9l0,0L28.9,9.1z M29,8.4L29,8.4
				l0.6-0.1l0,0L29,8.4z M29,7.8L29,7.8l0.6-0.1l0,0L29,7.8z M29,7.2L29,7.2l0.6-0.1l0,0L29,7.2z M29.1,6.5L29.1,6.5l0.6-0.1l0,0
				L29.1,6.5z"/>
		</g>
	</g>
	<g>
		<g>
			<path fill="#FFFFFF" d="M33.3,10.1c-0.1,0-0.1-0.1-0.1-0.2c0-0.2,0.2-0.2,0.3-0.2s0.2-0.1,0.2-0.3c0.1-1.1,0.3-2.1,0.4-3.2
				c0-0.2,0-0.2,0-0.3c-0.1-0.1-0.3,0-0.3-0.3c0-0.1,0.1-0.1,0.2-0.1l1.4,0.2c0.2,0.9,0.4,1.7,0.6,2.7c0.1-0.1,0.1-0.8,0.2-1
				c0-0.3,0.1-0.6,0.1-0.9c0-0.2,0-0.3-0.1-0.4c-0.1,0-0.3-0.1-0.2-0.3c0,0,0.1-0.1,0.2-0.1C36.6,5.9,37,6,37.4,6
				c0.1,0,0.1,0.1,0.1,0.2s-0.1,0.2-0.3,0.2c-0.1,0-0.2,0.1-0.2,0.3l-0.5,3.9l-0.9-0.1c-0.3-1.1-0.5-2.1-0.8-3.1
				c0,0.3-0.2,1.1-0.2,1.4s-0.1,0.6-0.1,0.9c0,0.2,0,0.3,0.1,0.3s0.3,0.1,0.3,0.2c0,0.1-0.1,0.1-0.2,0.1
				C34.2,10.2,33.8,10.2,33.3,10.1L33.3,10.1z"/>
		</g>
		<g>
			<path fill="#140958" d="M36.6,10.7l-1.1-0.2v-0.1C35.2,9.7,35,9,34.8,8.2V8c0,0.1,0,0.3-0.1,0.4l-0.2,1.2c0,0.1,0,0.2,0,0.2l0,0
				c0.1,0,0.3,0.1,0.3,0.4l0,0c0,0.1-0.2,0.2-0.3,0.2l0,0l0,0l-1.3-0.2C33.1,10.1,33,10,33,9.9c0-0.3,0.3-0.3,0.4-0.3l0,0
				c0,0,0.1,0,0.1-0.2L34,6.3c0-0.2,0-0.2,0-0.2s0,0-0.1,0S33.6,6,33.6,5.7l0,0c0-0.1,0.1-0.2,0.3-0.2l0,0l1.5,0.2v0.1
				c0.2,0.6,0.3,1.2,0.5,1.9v0.2V7.8c0-0.1,0-0.2,0-0.2L36,6.7c0-0.2,0-0.2,0-0.2c-0.1,0-0.2-0.1-0.3-0.2c0-0.1,0-0.1,0-0.3
				c0-0.1,0.2-0.2,0.4-0.2L37.3,6c0.1,0,0.2,0.1,0.3,0.3l0,0l0,0c0,0.1-0.1,0.2-0.1,0.2c-0.1,0.1-0.2,0.1-0.3,0.1s-0.1,0.1-0.1,0.2
				L36.6,10.7z M35.7,10.3l0.7,0.1l0.5-3.8c0-0.4,0.3-0.4,0.3-0.4l0,0l0,0c0.1,0,0.1,0,0.1,0l0,0l0,0L36.1,6H36l0,0c0,0,0,0,0.1,0.1
				l0,0c0.2,0.1,0.3,0.2,0.2,0.5l-0.1,0.9c0,0.1,0,0.1,0,0.2c-0.1,0.5-0.1,0.7-0.1,0.8h-0.2l-0.2-0.8c-0.1-0.6-0.3-1.2-0.4-1.8
				L34,5.7l0,0c0,0,0,0,0.1,0.1c0.1,0,0.1,0,0.2,0.1c0.1,0.1,0.1,0.2,0.1,0.4L34,9.5c0,0.3-0.2,0.4-0.3,0.4l0,0c0,0,0,0-0.1,0h-0.1
				l0,0l0,0l1.3,0.2l0,0c0,0,0,0-0.1-0.1h-0.1c-0.1-0.1-0.2-0.2-0.2-0.5l0.2-1.1c0-0.3,0.1-0.8,0.2-1.1h0.3l0.2,0.8
				C35.3,8.9,35.5,9.6,35.7,10.3z M36.1,6L36.1,6L36.1,6z"/>
		</g>
	</g>
	<g>
		<g>
			<path fill="#140958" d="M34.5,9.6h-0.3l0,0H34.5L34.5,9.6z M34.5,8.9h-0.3l0,0H34.5L34.5,8.9z M34.6,8.3h-0.3l0,0H34.6L34.6,8.3z
				 M34.7,7.7h-0.3l0,0H34.7L34.7,7.7z M35.7,7.2L34.5,7l0,0L35.7,7.2L35.7,7.2z M35.5,6.5l-0.9-0.1l0,0L35.5,6.5L35.5,6.5z"/>
		</g>
	</g>
	<g>
		<g>
			<path fill="#140958" d="M36.6,9.9L36,9.8l0,0L36.6,9.9L36.6,9.9z M36.7,9.3l-0.9-0.1l0,0L36.7,9.3L36.7,9.3z M36.8,8.6h-0.3l0,0
				H36.8L36.8,8.6z M36.9,8h-0.3l0,0H36.9L36.9,8z M37,7.4h-0.3l0,0H37L37,7.4z M37.1,6.8h-0.3l0,0H37.1L37.1,6.8z"/>
		</g>
	</g>
	<g>
		<g>
			<path fill="#140958" d="M36,8.5l-0.4-0.1l0,0L36,8.5L36,8.5z M35.9,7.9l-0.6-0.1l0,0L35.9,7.9L35.9,7.9z"/>
		</g>
	</g>
	<g>
		<g>
			<path fill="#FFFFFF" d="M40.1,10.1c0.1-0.2,0-0.3-0.1-0.4c-0.1,0-0.2-0.1-0.2-0.3c0-0.1,0.1-0.1,0.2-0.1l1.4,0.4
				c0.3,0.1,0.4,0.1,0.4,0.3c-0.1,0.1-0.2,0.1-0.3,0.1s-0.2,0-0.2,0.2c-0.1,0.2-0.1,0.3-0.2,0.4c-0.1,0.2-0.3,0.4-0.5,0.5
				s-0.4,0.2-0.6,0.2c-0.2,0-0.5,0-0.7-0.1c-0.5-0.2-0.9-0.5-1-1C38,10,38,9.4,38.3,8.7c0.2-0.7,0.5-1.2,0.9-1.6
				c0.4-0.3,0.8-0.4,1.2-0.3c0.3,0.1,0.4,0.2,0.5,0.6H41c0.1-0.1,0.1-0.1,0.1-0.1c0.1-0.1,0.2-0.2,0.4-0.1s0.2,0.2,0.2,0.4
				c-0.1,0.4-0.2,0.7-0.3,1c-0.1,0.2-0.3,0.3-0.4,0.2c-0.2,0-0.3-0.2-0.3-0.4s0-0.3,0-0.4c0-0.2-0.1-0.4-0.2-0.4
				c-0.2-0.1-0.4,0.1-0.4,0.3C39.9,8,39.7,8.4,39.5,9c-0.1,0.5-0.2,0.8-0.3,1.1c0,0.2-0.1,0.4,0,0.5c0,0.1,0.1,0.2,0.2,0.2
				C39.7,10.9,40,10.6,40.1,10.1L40.1,10.1z"/>
		</g>
		<g>
			<path fill="#140958" d="M39.8,11.7c-0.2,0-0.4,0-0.6-0.1c-0.6-0.2-0.9-0.5-1.1-1c-0.2-0.5-0.2-1.1,0.1-1.9
				C38.4,7.9,38.7,7.4,39,7c0.4-0.4,0.8-0.5,1.3-0.3c0.3,0.1,0.5,0.3,0.6,0.6l0,0l0,0C41,7.1,41.2,7,41.4,7.1
				c0.2,0.1,0.3,0.3,0.3,0.5l0,0l-0.3,1c-0.1,0.3-0.4,0.3-0.6,0.3c-0.2,0-0.4-0.3-0.4-0.5l0,0c0-0.2,0-0.2,0-0.3V8
				c0-0.1-0.1-0.3-0.1-0.3c-0.1,0-0.2,0.1-0.3,0.2l0,0c0,0.2-0.2,0.6-0.3,1.1s-0.2,0.8-0.3,1c0,0.1-0.1,0.4,0,0.5
				c0,0.1,0.1,0.1,0.1,0.2c0,0,0.1,0,0.2,0c0.1-0.1,0.3-0.3,0.3-0.6l0,0c0.1-0.2,0-0.2,0-0.2c-0.1,0-0.3-0.2-0.2-0.4
				c0-0.2,0.2-0.2,0.3-0.2l0,0l1.4,0.4c0.2,0,0.4,0.1,0.4,0.2c0,0,0,0.1,0,0.2c-0.1,0.2-0.3,0.2-0.4,0.2l0,0c0,0-0.1,0-0.1,0.1
				c-0.1,0.2-0.1,0.3-0.2,0.4c-0.1,0.2-0.3,0.4-0.5,0.6c-0.2,0.1-0.4,0.2-0.7,0.3C39.9,11.7,39.8,11.7,39.8,11.7z M40,6.9
				c-0.3,0-0.5,0.1-0.7,0.3C39,7.5,38.7,8,38.5,8.7c-0.2,0.7-0.2,1.3-0.1,1.7c0.2,0.4,0.5,0.7,1,0.9c0.2,0.1,0.4,0.1,0.7,0.1
				c0.2,0,0.4-0.1,0.6-0.2c0.2-0.1,0.3-0.3,0.5-0.5c0.1-0.1,0.1-0.2,0.2-0.4c0.1-0.2,0.2-0.3,0.4-0.2l0,0c0.2,0,0.2,0,0.2,0
				s0-0.1-0.3-0.1L40,9.5l0,0c0,0,0,0.1,0.1,0.1l0,0c0.2,0.1,0.2,0.4,0.1,0.5c-0.1,0.3-0.3,0.6-0.5,0.7c-0.1,0.1-0.2,0.1-0.4,0
				c-0.1,0-0.3-0.2-0.3-0.3s0-0.3,0-0.6c0-0.2,0.1-0.6,0.3-1.1c0.2-0.6,0.3-1,0.4-1.1l0,0c0.1-0.3,0.4-0.4,0.6-0.3
				c0.2,0.1,0.3,0.3,0.3,0.5V8c0,0.1,0,0.2,0,0.4c0,0.1,0.1,0.2,0.2,0.2c0.1,0,0.2,0,0.3-0.1l0.3-1c0-0.2-0.1-0.2-0.1-0.2
				c-0.1,0-0.2,0-0.2,0.1l0,0c0,0,0,0.1-0.1,0.2l0,0l0,0c-0.1,0-0.2,0-0.3-0.1l0,0l0,0c-0.1-0.3-0.2-0.4-0.5-0.5
				C40.2,6.9,40.1,6.9,40,6.9z"/>
		</g>
	</g>
	<g>
		<g>
			<path fill="#140958" d="M39.2,10.6l-0.6-0.2l0,0L39.2,10.6L39.2,10.6z M39.3,10l-0.7-0.2l0,0L39.3,10L39.3,10z M39.4,9.4
				l-0.8-0.2l0,0L39.4,9.4L39.4,9.4z M39.6,8.8l-0.8-0.2l0,0L39.6,8.8L39.6,8.8z M39.8,8.2L39.1,8l0,0L39.8,8.2L39.8,8.2z M40.1,7.6
				l-0.5-0.2l0,0L40.1,7.6L40.1,7.6z"/>
		</g>
	</g>
	<g>
		<g>
			<path fill="#140958" d="M40.7,11.1L40,10.9l0,0L40.7,11.1L40.7,11.1z M41.1,10.6l-0.7-0.2l0,0L41.1,10.6L41.1,10.6z M41.3,8.6H41
				l0,0H41.3L41.3,8.6z M41.5,8.1L41.1,8l0,0L41.5,8.1L41.5,8.1z"/>
		</g>
	</g>
	<g>
		<g>
			<path fill="#140958" d="M45.5,48.1l-0.7-0.8c0-0.1-0.2-0.2-0.2-0.2l0,0c0,0-0.1,0.1-0.2,0.1c-0.1,0.1-0.3,0.2-0.5,0.1
				c-0.2,0-0.3-0.3-0.1-0.5c0.3-0.3,0.6-0.5,0.9-0.8c0.3-0.3,0.6-0.5,0.9-0.8c0.1-0.1,0.4,0,0.4,0.2s-0.1,0.3-0.1,0.4
				c0,0-0.1,0.1-0.2,0.2l0,0l0,0c0,0.1,0.1,0.2,0.2,0.2l0.5,0.6l2,0.7c0.1,0,0.5,0.2,0.7,0.2c0.1,0,0.2-0.1,0.4-0.1
				c0.1,0,0.2,0.1,0.2,0.1c0.1,0.1,0.1,0.3,0,0.4c-0.5,0.5-1.1,0.9-1.6,1.4c-0.1,0.1-0.3,0.1-0.4,0c-0.2-0.2-0.2-0.4,0-0.5l0,0
				c-0.1-0.1-0.3-0.1-0.4-0.2l-1.2-0.4l0.2,1.1c0,0.1,0.1,0.4,0.1,0.5c0.1,0,0.2-0.1,0.4-0.1c0.1,0,0.2,0,0.2,0.1
				c0.1,0.1,0.1,0.3,0,0.4l-1,0.8c-0.1,0.1-0.3,0.1-0.4,0c-0.1-0.1-0.1-0.2-0.1-0.3s0.1-0.2,0.1-0.3c0-0.2-0.1-0.6-0.1-0.8
				L45.5,48.1L45.5,48.1z"/>
		</g>
	</g>
	<g>
		<g>
			<path fill="#FFFFFF" d="M46.1,51.2c-0.1-0.2,0-0.2,0.1-0.4c0-0.1,0-0.4-0.1-0.9L45.8,48l-0.7-0.8c-0.2-0.2-0.3-0.3-0.3-0.3
				c-0.1,0-0.1,0-0.2,0c-0.1,0-0.2,0.1-0.3,0.1c-0.1,0.1-0.2,0.1-0.3,0.1l0,0c0.3-0.3,0.6-0.5,0.9-0.8c0.3-0.3,0.6-0.5,0.9-0.8l0,0
				c0,0.1,0,0.1-0.1,0.2c-0.1,0.1-0.2,0.2-0.2,0.3s0,0.1,0,0.2c0,0.1,0.1,0.2,0.2,0.3l0.6,0.7l2,0.8c0.4,0.1,0.7,0.2,0.8,0.2
				c0.2,0,0.3-0.2,0.4-0.1l0,0c-0.5,0.5-1.1,0.9-1.6,1.4l0,0c0,0-0.1-0.1,0-0.1c0.1-0.1,0.2-0.2,0.2-0.2c0-0.1,0-0.1,0-0.1
				c-0.1-0.1-0.2-0.2-0.6-0.3L46,48.1l0.3,1.5c0.1,0.4,0.1,0.6,0.2,0.7c0,0,0.1,0.1,0.2,0.1c0.3,0,0.3-0.2,0.4-0.1l0,0L46.1,51.2
				L46.1,51.2L46.1,51.2z"/>
		</g>
	</g>
	<g>
		<g>
			<rect x="45.4" y="47.1" fill="#140958" width="0" height="0.6"/>
		</g>
	</g>
	<g>
		<g>
			<rect x="45.7" y="47.4" fill="#140958" width="0" height="0.6"/>
		</g>
	</g>
	<g>
		<g>
			<rect x="46.9" y="47.9" fill="#140958" width="0" height="0.6"/>
		</g>
	</g>
	<g>
		<g>
			<rect x="47.5" y="48.1" fill="#140958" width="0" height="0.7"/>
		</g>
	</g>
	<g>
		<g>
			<rect x="48.1" y="48.2" fill="#140958" width="0" height="0.7"/>
		</g>
	</g>
	<g>
		<g>
			<rect x="46.3" y="47.7" fill="#140958" width="0" height="0.6"/>
		</g>
	</g>
	<g>
		<g>
			<rect x="45.1" y="46.8" fill="#140958" width="0" height="0.6"/>
		</g>
	</g>
	<g>
		<g>
			<path fill="#140958" d="M46.1,50.3L46.1,50.3l0.2-0.2l0,0L46.1,50.3z M46,49.8L46,49.8l0.2-0.2l0,0L46,49.8z M45.9,49.1
				L45.9,49.1l0.2-0.2l0,0L45.9,49.1z M45.8,48.5L45.8,48.5l0.2-0.2l0,0L45.8,48.5z"/>
		</g>
	</g>
</g>
<g enable-background="new    ">
	<path fill="#2196F3" d="M63.6,11.3h17.2v9h-4.5v-3.5c0-0.6-0.3-0.9-0.9-1.1v9.9c0,1.2,0.2,1.9,0.7,2v3.6h-7.7v-3.4
		c0.5-0.2,0.7-0.7,0.7-1.5V15.7c-0.6,0-0.9,0.4-0.9,1.2v3.3h-4.5V11.3z"/>
	<path fill="#2196F3" d="M82.7,11.3h9.2c4.4,0,6.6,1.8,6.6,5.3c0,1.3-0.2,2.3-0.6,3c-0.4,0.8-1.2,1.4-2.3,1.8
		c1.7,0.3,2.5,1.3,2.5,3.1v1.5c0,1,0.2,1.6,0.7,1.8v3.4h-6.7c-0.2-0.7-0.4-2.1-0.4-4.2v-1.9c0-0.6-0.2-1.1-0.7-1.4
		c-0.2-0.1-0.7-0.3-1.4-0.4v2.4c0,1.2,0.2,1.9,0.7,2v3.4h-7.7v-3.4c0.5-0.4,0.7-1.2,0.7-2.5v-8.9c0-0.7-0.2-1.1-0.7-1.3V11.3z
		 M89.6,15.5v4l0.5,0.1c1.3,0,1.9-0.6,1.9-1.7v-0.4c-0.1-0.8-0.3-1.4-0.6-1.6C91.1,15.6,90.5,15.5,89.6,15.5z"/>
	<path fill="#2196F3" d="M116.1,13.3v11.9c0,1.5-0.2,2.7-0.6,3.5c-0.5,1-1.4,1.8-2.7,2.4c-0.9,0.4-2.2,0.6-3.8,0.6
		c-1.8,0-3.1-0.2-4.1-0.6c-2.2-1-3.3-2.7-3.3-5.2v-9.2c0-0.8-0.2-1.4-0.7-1.7v-3.7h7.7V15c-0.5,0.2-0.7,1-0.7,2.2v7.8
		c0,0.8,0,1.3,0,1.4c0.1,0.7,0.5,1,1.2,1c0.7,0,1.1-0.5,1.1-1.5v-9.2c0-0.9-0.2-1.4-0.7-1.6v-3.7h6.4c0.3-0.4,0.5-0.7,0.6-1
		c-0.6,0-1.2-0.2-1.6-0.7c-0.4-0.4-0.7-1-0.7-1.6s0.2-1.2,0.7-1.6c0.4-0.4,1-0.6,1.6-0.6c0.8,0,1.5,0.2,2,0.7
		c0.5,0.5,0.7,1.1,0.7,1.9c0,0.7-0.1,1.3-0.4,2C118,11.7,117.2,12.7,116.1,13.3z"/>
	<path fill="#2196F3" d="M133.2,14c0.3,0.7,0.5,1.6,0.5,2.8v9c0,2.2-0.7,3.8-2.1,4.7c-1.1,0.8-2.9,1.1-5.3,1.1
		c-2.5,0-4.3-0.4-5.6-1.4c-1.5-1-2.2-2.7-2.2-5.1v-8.2c0-4,2.6-6,7.7-6c2.9,0,4.9,0.6,6,1.7c0.5-0.5,0.8-1,0.9-1.4
		c-0.6,0-1.2-0.2-1.6-0.7c-0.4-0.4-0.7-1-0.7-1.6c0-0.6,0.2-1.2,0.7-1.6c0.4-0.4,1-0.6,1.6-0.6c0.8,0,1.5,0.2,2,0.7
		c0.5,0.5,0.7,1.1,0.7,1.9c0,0.7-0.1,1.3-0.4,2C134.9,12.4,134.1,13.2,133.2,14z M122.4,5.5h4l1.4,3.9h-2.8L122.4,5.5z M127.4,25.3
		v-8.4c0-0.5,0-0.8,0-1c-0.1-0.4-0.4-0.6-1-0.6c-0.9,0-1.3,0.5-1.3,1.6v8.4c0,1.3,0.4,1.9,1.3,1.9C127,27.2,127.4,26.6,127.4,25.3z"
		/>
	<path fill="#2196F3" d="M136.1,11.3h6.8l3.4,9v-4.2c0-0.6-0.2-1-0.5-1.3v-3.5h6.4v3.5c-0.5,0.4-0.7,1-0.7,2v14.5h-6l-3.9-9v3.1
		c0,1.1,0.2,1.8,0.7,2.1v3.8h-6.2v-3.6c0.5-0.3,0.7-0.8,0.7-1.5v-9.8c0-0.7-0.2-1.2-0.7-1.5V11.3z"/>
	<path fill="#2196F3" d="M154.2,25v-8.3c0-3.8,2.3-5.7,6.9-5.7h1.2c2,0,4.2,0.7,6.6,2.1v5h-6.1v-1.3c0-1.1-0.4-1.7-1.1-1.7
		c-0.4,0-0.7,0.2-1,0.6c-0.2,0.3-0.3,0.7-0.3,1.2v8.7c0,1,0.4,1.5,1.2,1.5c0.8,0,1.2-0.5,1.2-1.4v-2h-0.9v-3.8h7v9.5
		c-0.5,0.6-1.6,1.1-3.3,1.5c-1.4,0.3-2.7,0.5-3.7,0.5H161c-2.4,0-4.1-0.5-5.2-1.5C154.7,29.1,154.2,27.4,154.2,25z"/>
	<path fill="#2196F3" d="M180.2,22.7h-0.6v-3.4h0.6v-2.8c0-0.9-0.3-1.5-0.9-1.6v-3.7h9.3c4.4,0,6.6,1.9,6.6,5.8V25
		c0,4.1-2.1,6.2-6.4,6.2h-9.5v-3.6c0.4-0.2,0.7-0.4,0.8-0.7c0.1-0.2,0.1-0.6,0.1-1.1V22.7z M186.6,22.7V27l0.6,0.1
		c1.1,0,1.6-0.6,1.6-1.8v-8.2c0-0.6-0.2-1-0.6-1.2c-0.3-0.1-0.8-0.2-1.5-0.2v3.6h1.3v3.4H186.6z"/>
	<path fill="#2196F3" d="M208.7,11.3l2.8,14.5c0.2,1,0.6,1.6,1.1,2v3.4h-7.9v-3.4c0.4-0.4,0.7-1,0.7-1.8h-3.1c0,0.9,0.2,1.5,0.7,1.8
		v3.4h-6.8v-3.6c0.5-0.5,0.8-1.1,0.9-2l2.6-14.3H208.7z M202.2,34.6c0-0.6,0.2-1,0.6-1.3c0.4-0.3,0.8-0.5,1.4-0.5s1,0.2,1.4,0.5
		s0.6,0.8,0.6,1.3c0,0.6-0.2,1.1-0.5,1.6c-0.4,0.5-0.8,0.7-1.4,0.7c-0.6,0-1.1-0.2-1.5-0.7C202.4,35.8,202.2,35.2,202.2,34.6z
		 M204.7,22.1l-0.9-5.8l-0.9,5.8H204.7z"/>
	<path fill="#2196F3" d="M213.8,11.3h7.9v3.5c-0.5,0.4-0.7,1-0.7,2v8.8c0,0.6,0,1,0.1,1.2c0.1,0.3,0.3,0.6,0.6,1v3.4h-7.9v-3.4
		c0.4-0.4,0.7-0.9,0.7-1.7v-10c0-0.7-0.2-1.1-0.7-1.4V11.3z"/>
	<path fill="#2196F3" d="M232.2,11.3h7.5v3.5c-0.4,0.4-0.6,1-0.6,2v2.2h2.2v-3c0-0.5-0.2-0.9-0.6-1.2v-3.5h7.7v3.5
		c-0.6,0.6-0.8,1.2-0.7,1.9v0.8v7.9c0,1.3,0.2,2.1,0.7,2.5v3.4h-7.7v-3.4c0.4-0.2,0.6-0.8,0.6-1.7v-3.3h-2.2v2.8
		c0,1.1,0.2,1.8,0.6,2.2v3.4h-7.5v-3.4c0.5-0.4,0.7-1,0.7-1.9v-9c0-1.1-0.2-1.8-0.7-2.2V11.3z"/>
	<path fill="#2196F3" d="M250.8,25.1v-8.2c0-4,2.6-6,7.7-6c2.4,0,4.1,0.4,5.3,1.1c1.4,0.9,2.1,2.5,2.1,4.7v9c0,2.2-0.7,3.8-2.1,4.7
		c-1.1,0.8-2.9,1.1-5.3,1.1c-2.5,0-4.3-0.4-5.6-1.4C251.5,29.2,250.8,27.5,250.8,25.1z M256.5,34.9c0-0.6,0.2-1,0.6-1.3
		c0.4-0.3,0.8-0.5,1.4-0.5s1,0.2,1.4,0.5c0.4,0.3,0.6,0.8,0.6,1.3c0,0.6-0.2,1.1-0.5,1.6c-0.4,0.4-0.8,0.7-1.4,0.7
		c-0.6,0-1.1-0.2-1.5-0.7C256.7,36.1,256.5,35.5,256.5,34.9z M259.6,25.3v-8.4c0-0.5,0-0.8,0-1c-0.1-0.4-0.4-0.6-1-0.6
		c-0.9,0-1.3,0.5-1.3,1.6v8.4c0,1.3,0.4,1.9,1.3,1.9C259.2,27.2,259.6,26.6,259.6,25.3z"/>
	<path fill="#2196F3" d="M276.4,18.6v-2.2c0-0.3-0.1-0.6-0.3-0.9c-0.2-0.2-0.4-0.4-0.8-0.4c-0.7,0-1.1,0.5-1.1,1.5V26
		c0,0.3,0.1,0.7,0.3,1c0.2,0.3,0.5,0.4,0.8,0.4c0.7,0,1-0.5,1-1.4v-3.1h6.3v6.4c-0.5,0.8-1.6,1.4-3.4,1.8c-1.3,0.3-2.6,0.4-4,0.4
		c-5,0-7.5-2-7.5-6.1v-8.2c0-2.2,0.6-3.8,1.8-4.8c1.1-0.9,2.8-1.4,5-1.4c3.1,0,5.8,0.7,8,2v5.7H276.4z"/>
	<path fill="#2196F3" d="M305,11.3l2.8,14.5c0.2,1,0.6,1.6,1.1,2v3.4H301v-3.4c0.5-0.4,0.7-1,0.7-1.8h-3.1c0,0.9,0.2,1.5,0.7,1.8
		v3.4h-6.8v-3.6c0.5-0.5,0.8-1.1,0.9-2l2.6-14.3H305z M301,22.1l-0.9-5.8l-0.9,5.8H301z"/>
	<path fill="#2196F3" d="M310.4,11.3h6.8l3.4,9v-4.2c0-0.6-0.2-1-0.5-1.3v-3.5h6.4v3.5c-0.5,0.4-0.7,1-0.7,2v14.5h-6l-3.9-9v3.1
		c0,1.1,0.2,1.8,0.7,2.1v3.8h-6.2v-3.6c0.5-0.3,0.7-0.8,0.7-1.5v-9.8c0-0.7-0.2-1.2-0.7-1.5V11.3z"/>
	<path fill="#2196F3" d="M337,25v-8.3c0-3.8,2.3-5.7,6.9-5.7h1.2c2,0,4.2,0.7,6.6,2.1v5h-6.1v-1.3c0-1.1-0.4-1.7-1.1-1.7
		c-0.4,0-0.7,0.2-1,0.6c-0.2,0.3-0.3,0.7-0.3,1.2v8.7c0,1,0.4,1.5,1.2,1.5c0.8,0,1.2-0.5,1.2-1.4v-2h-0.9v-3.8h7v9.5
		c-0.5,0.6-1.6,1.1-3.3,1.5c-1.4,0.3-2.7,0.5-3.7,0.5h-0.9c-2.4,0-4.1-0.5-5.2-1.5C337.6,29.1,337,27.4,337,25z"/>
	<path fill="#2196F3" d="M353.8,11.3h7.9v3.5c-0.5,0.4-0.7,1-0.7,2v8.8c0,0.6,0,1,0.1,1.2c0.1,0.3,0.3,0.6,0.6,1v3.4h-7.9v-3.4
		c0.5-0.4,0.7-0.9,0.7-1.7v-10c0-0.7-0.2-1.1-0.7-1.4V11.3z"/>
	<path fill="#2196F3" d="M375.5,11.3l2.8,14.5c0.2,1,0.6,1.6,1.1,2v3.4h-7.9v-3.4c0.5-0.4,0.7-1,0.7-1.8h-3.1c0,0.9,0.2,1.5,0.7,1.8
		v3.4H363v-3.6c0.5-0.5,0.8-1.1,0.9-2l2.6-14.3H375.5z M371.5,22.1l-0.9-5.8l-0.9,5.8H371.5z"/>
	<path fill="#2196F3" d="M381,11.3h6.8l3.4,9v-4.2c0-0.6-0.2-1-0.5-1.3v-3.5h6.4v3.5c-0.5,0.4-0.7,1-0.7,2v14.5h-6l-3.9-9v3.1
		c0,1.1,0.2,1.8,0.7,2.1v3.8H381v-3.6c0.5-0.3,0.7-0.8,0.7-1.5v-9.8c0-0.7-0.2-1.2-0.7-1.5V11.3z"/>
	<path fill="#2196F3" d="M399.1,25v-8.3c0-3.8,2.3-5.7,6.9-5.7h1.2c2,0,4.2,0.7,6.6,2.1v5h-6.1v-1.3c0-1.1-0.4-1.7-1.1-1.7
		c-0.4,0-0.7,0.2-1,0.6c-0.2,0.3-0.3,0.7-0.3,1.2v8.7c0,1,0.4,1.5,1.2,1.5c0.8,0,1.2-0.5,1.2-1.4v-2h-0.9v-3.8h7v9.5
		c-0.5,0.6-1.6,1.1-3.3,1.5c-1.4,0.3-2.7,0.5-3.7,0.5h-0.9c-2.4,0-4.1-0.5-5.2-1.5C399.6,29.1,399.1,27.4,399.1,25z"/>
</g>
<g enable-background="new    ">
	<path fill="#C70000" d="M71.6,48.9c-0.1,1.2-0.4,2.2-1.1,2.8s-1.6,1-2.7,1c-1.2,0-2.2-0.4-2.8-1.2c-0.7-0.8-1-2-1-3.5v-1.8
		c0-1.5,0.3-2.7,1-3.5c0.7-0.8,1.6-1.2,2.8-1.2c1.2,0,2.1,0.3,2.7,1c0.6,0.7,1,1.6,1.1,2.9h-2.2c0-0.8-0.1-1.3-0.4-1.6
		c-0.2-0.3-0.6-0.4-1.2-0.4c-0.6,0-1,0.2-1.3,0.6s-0.4,1.1-0.4,2V48c0,1.1,0.1,1.8,0.4,2.2c0.2,0.4,0.7,0.6,1.2,0.6
		c0.6,0,1-0.1,1.2-0.4c0.2-0.3,0.3-0.8,0.4-1.5H71.6z"/>
	<path fill="#C70000" d="M74.9,45.1c0.5-0.6,1-0.9,1.7-0.9c0.7,0,1.3,0.3,1.7,0.8c0.4,0.5,0.6,1.3,0.6,2.3v5.2h-2.1v-5.1
		c0-0.5-0.1-0.8-0.2-1c-0.1-0.2-0.4-0.3-0.7-0.3c-0.4,0-0.7,0.2-0.9,0.5v6h-2.1V41h2.1V45.1z"/>
	<path fill="#C70000" d="M84.3,52.5c-0.1-0.1-0.1-0.3-0.2-0.6c-0.4,0.5-0.9,0.8-1.5,0.8c-0.7,0-1.2-0.2-1.7-0.7
		c-0.4-0.5-0.7-1-0.7-1.7c0-0.9,0.3-1.5,0.8-2c0.5-0.5,1.3-0.7,2.3-0.7H84v-0.7c0-0.4-0.1-0.6-0.2-0.8c-0.1-0.1-0.3-0.2-0.5-0.2
		c-0.5,0-0.8,0.3-0.8,0.9h-2.1c0-0.8,0.3-1.4,0.8-1.9c0.6-0.5,1.3-0.7,2.1-0.7c0.9,0,1.6,0.2,2.1,0.7c0.5,0.5,0.7,1.1,0.7,2v3.8
		c0,0.7,0.1,1.2,0.3,1.6v0.1H84.3z M82.7,41.6h1.1l1.8,1.7l-1.5,0l-0.9-0.9l-0.9,0.9l-1.5,0L82.7,41.6z M83,51c0.2,0,0.4,0,0.6-0.1
		c0.2-0.1,0.3-0.2,0.4-0.3v-1.7h-0.5c-0.4,0-0.6,0.1-0.9,0.3c-0.2,0.2-0.3,0.5-0.3,0.9C82.3,50.7,82.6,51,83,51z M86.2,40.3h1.7
		l-1.5,2h-1.2L86.2,40.3z"/>
	<path fill="#C70000" d="M90.1,42.4v2h1.1V46h-1.1v4c0,0.3,0,0.5,0.1,0.7c0.1,0.1,0.3,0.2,0.5,0.2c0.2,0,0.4,0,0.5-0.1l0,1.7
		c-0.4,0.1-0.8,0.2-1.2,0.2c-1.4,0-2.1-0.8-2.1-2.4V46h-0.9v-1.6H88v-2H90.1z"/>
	<path fill="#C70000" d="M98.2,52.5H96V41h2.1V52.5z"/>
	<path fill="#C70000" d="M107.8,43.7c0,0.9-0.2,1.6-0.5,2s-0.8,0.7-1.5,0.8v6h-2l-0.1-0.7c-0.4,0.6-1,0.9-1.8,0.9
		c-0.7,0-1.3-0.3-1.7-0.8c-0.4-0.5-0.6-1.3-0.6-2.2v-5.3h2.1v5.3c0,0.8,0.3,1.2,0.8,1.2c0.5,0,0.8-0.2,1.1-0.6v-5.9h2.1v1
		c0.3-0.1,0.4-0.2,0.5-0.5c0.1-0.2,0.2-0.7,0.2-1.3H107.8z"/>
	<path fill="#C70000" d="M107.9,48.4c0-1.3,0.3-2.3,0.9-3c0.6-0.7,1.4-1.1,2.4-1.1s1.8,0.4,2.4,1.1c0.3-0.3,0.4-0.8,0.4-1.7h1.3
		c0,1.3-0.4,2.2-1.1,2.6c0.3,0.6,0.4,1.4,0.4,2.3c0,1.3-0.3,2.3-0.9,3s-1.4,1.1-2.4,1.1c-1,0-1.7-0.3-2.3-1c-0.6-0.7-0.9-1.6-1-2.8
		L107.9,48.4z M111.1,53.3c0.4,0,0.7,0.1,0.9,0.3c0.2,0.2,0.3,0.4,0.3,0.7c0,0.3-0.1,0.5-0.3,0.7c-0.2,0.2-0.5,0.3-0.9,0.3
		c-0.4,0-0.7-0.1-0.9-0.3c-0.2-0.2-0.3-0.4-0.3-0.7c0-0.3,0.1-0.5,0.3-0.7C110.5,53.4,110.8,53.3,111.1,53.3z M110,48.5
		c0,1.6,0.4,2.4,1.2,2.4c0.7,0,1.1-0.7,1.1-2l0-0.5c0-1.6-0.4-2.4-1.2-2.4c-0.4,0-0.7,0.2-0.9,0.6C110.1,47,110,47.6,110,48.5z"/>
	<path fill="#C70000" d="M117.9,44.4l0.1,0.8c0.5-0.6,1.1-1,1.9-1c1.4,0,2.1,1,2.2,2.9v5.3h-2.1v-5.2c0-0.5-0.1-0.8-0.2-1
		S119.3,46,119,46c-0.4,0-0.7,0.2-0.9,0.6v5.9h-2.1v-8.1H117.9z"/>
	<path fill="#C70000" d="M123.3,48.2c0-1.3,0.2-2.3,0.7-3s1.2-1,2-1c0.7,0,1.3,0.3,1.7,0.9l0.1-0.7h1.9v8.1c0,1-0.3,1.8-0.9,2.4
		s-1.4,0.8-2.5,0.8c-0.4,0-0.9-0.1-1.4-0.3c-0.5-0.2-0.9-0.4-1.1-0.7l0.7-1.5c0.2,0.2,0.5,0.4,0.8,0.5c0.3,0.1,0.6,0.2,0.9,0.2
		c0.5,0,0.8-0.1,1-0.3c0.2-0.2,0.3-0.6,0.3-1.1v-0.7c-0.4,0.5-0.9,0.8-1.6,0.8c-0.9,0-1.5-0.3-2-1c-0.5-0.7-0.7-1.6-0.7-2.8V48.2z
		 M125.4,48.7c0,0.8,0.1,1.3,0.3,1.6s0.5,0.5,0.9,0.5c0.4,0,0.8-0.2,1-0.5v-3.9c-0.2-0.3-0.5-0.5-1-0.5c-0.4,0-0.7,0.2-0.9,0.5
		c-0.2,0.3-0.3,0.9-0.3,1.7V48.7z"/>
	<path fill="#C70000" d="M138.7,48.7H135v-1.8h3.7V48.7z"/>
	<path fill="#C70000" d="M148.7,49.6c0-0.4-0.1-0.8-0.3-1s-0.6-0.5-1.2-0.7c-1.1-0.4-1.9-0.9-2.4-1.5c-0.5-0.6-0.7-1.2-0.7-2
		c0-0.9,0.3-1.7,1-2.2c0.7-0.6,1.5-0.8,2.5-0.8c0.7,0,1.3,0.1,1.8,0.4c0.5,0.3,0.9,0.7,1.2,1.2c0.3,0.5,0.4,1.1,0.4,1.8h-2.2
		c0-0.5-0.1-0.9-0.3-1.2c-0.2-0.3-0.5-0.4-0.9-0.4c-0.4,0-0.7,0.1-0.9,0.3c-0.2,0.2-0.3,0.5-0.3,0.9c0,0.3,0.1,0.6,0.4,0.8
		c0.2,0.2,0.7,0.5,1.3,0.8c1.1,0.4,1.8,0.9,2.3,1.4c0.5,0.6,0.7,1.3,0.7,2.1c0,1-0.3,1.7-0.9,2.2c-0.6,0.5-1.4,0.8-2.5,0.8
		c-0.7,0-1.3-0.1-1.9-0.4s-1-0.7-1.4-1.2c-0.3-0.5-0.5-1.2-0.5-1.9h2.2c0,0.6,0.1,1.1,0.4,1.4c0.2,0.3,0.6,0.4,1.2,0.4
		C148.3,50.8,148.7,50.4,148.7,49.6z"/>
	<path fill="#C70000" d="M156.1,52.5c-0.1-0.1-0.1-0.3-0.2-0.6c-0.4,0.5-0.9,0.8-1.5,0.8c-0.7,0-1.2-0.2-1.7-0.7
		c-0.4-0.5-0.7-1-0.7-1.7c0-0.9,0.3-1.5,0.8-2c0.5-0.5,1.3-0.7,2.3-0.7h0.6v-0.7c0-0.4-0.1-0.6-0.2-0.8c-0.1-0.1-0.3-0.2-0.5-0.2
		c-0.5,0-0.8,0.3-0.8,0.9h-2.1c0-0.8,0.3-1.4,0.8-1.9c0.6-0.5,1.3-0.7,2.1-0.7c0.9,0,1.6,0.2,2.1,0.7c0.5,0.5,0.7,1.1,0.7,2v3.8
		c0,0.7,0.1,1.2,0.3,1.6v0.1H156.1z M155.5,41h2.4l-2.1,2.3H154L155.5,41z M154.9,51c0.2,0,0.4,0,0.6-0.1c0.2-0.1,0.3-0.2,0.4-0.3
		v-1.7h-0.5c-0.4,0-0.6,0.1-0.9,0.3c-0.2,0.2-0.3,0.5-0.3,0.9C154.2,50.7,154.4,51,154.9,51z"/>
	<path fill="#C70000" d="M161.5,44.4l0.1,0.8c0.5-0.6,1.1-1,1.9-1c1.4,0,2.1,1,2.2,2.9v5.3h-2.1v-5.2c0-0.5-0.1-0.8-0.2-1
		s-0.4-0.3-0.7-0.3c-0.4,0-0.7,0.2-0.9,0.6v5.9h-2.1v-8.1H161.5z"/>
	<path fill="#C70000" d="M166.8,48.2c0-1.3,0.2-2.3,0.7-3s1.2-1,2-1c0.7,0,1.3,0.3,1.7,0.9l0.1-0.7h1.9v8.1c0,1-0.3,1.8-0.9,2.4
		s-1.4,0.8-2.5,0.8c-0.4,0-0.9-0.1-1.4-0.3c-0.5-0.2-0.9-0.4-1.1-0.7l0.7-1.5c0.2,0.2,0.5,0.4,0.8,0.5c0.3,0.1,0.6,0.2,0.9,0.2
		c0.5,0,0.8-0.1,1-0.3c0.2-0.2,0.3-0.6,0.3-1.1v-0.7c-0.4,0.5-0.9,0.8-1.6,0.8c-0.9,0-1.5-0.3-2-1c-0.5-0.7-0.7-1.6-0.7-2.8V48.2z
		 M168.9,48.7c0,0.8,0.1,1.3,0.3,1.6s0.5,0.5,0.9,0.5c0.4,0,0.8-0.2,1-0.5v-3.9c-0.2-0.3-0.5-0.5-1-0.5c-0.4,0-0.7,0.2-0.9,0.5
		c-0.2,0.3-0.3,0.9-0.3,1.7V48.7z"/>
	<path fill="#C70000" d="M180.8,42.4v2h1.1V46h-1.1v4c0,0.3,0,0.5,0.1,0.7c0.1,0.1,0.3,0.2,0.5,0.2c0.2,0,0.4,0,0.5-0.1l0,1.7
		c-0.4,0.1-0.8,0.2-1.2,0.2c-1.4,0-2.1-0.8-2.1-2.4V46h-0.9v-1.6h0.9v-2H180.8z"/>
	<path fill="#C70000" d="M186.9,52.5c-0.1-0.1-0.1-0.3-0.2-0.6c-0.4,0.5-0.9,0.8-1.5,0.8c-0.7,0-1.2-0.2-1.7-0.7
		c-0.4-0.5-0.7-1-0.7-1.7c0-0.9,0.3-1.5,0.8-2c0.5-0.5,1.3-0.7,2.3-0.7h0.6v-0.7c0-0.4-0.1-0.6-0.2-0.8c-0.1-0.1-0.3-0.2-0.5-0.2
		c-0.5,0-0.8,0.3-0.8,0.9H183c0-0.8,0.3-1.4,0.8-1.9c0.6-0.5,1.3-0.7,2.1-0.7c0.9,0,1.6,0.2,2.1,0.7c0.5,0.5,0.7,1.1,0.7,2v3.8
		c0,0.7,0.1,1.2,0.3,1.6v0.1H186.9z M185.4,53.1c0.4,0,0.7,0.1,0.9,0.3c0.2,0.2,0.3,0.4,0.3,0.7c0,0.3-0.1,0.5-0.3,0.7
		c-0.2,0.2-0.5,0.3-0.9,0.3c-0.4,0-0.7-0.1-0.9-0.3c-0.2-0.2-0.3-0.4-0.3-0.7c0-0.3,0.1-0.5,0.3-0.7C184.7,53.2,185,53.1,185.4,53.1
		z M185.7,51c0.2,0,0.4,0,0.6-0.1c0.2-0.1,0.3-0.2,0.4-0.3v-1.7h-0.5c-0.4,0-0.6,0.1-0.9,0.3c-0.2,0.2-0.3,0.5-0.3,0.9
		C185,50.7,185.2,51,185.7,51z"/>
	<path fill="#C70000" d="M190.1,48.2c0-1.2,0.3-2.2,0.9-2.9c0.6-0.7,1.4-1.1,2.4-1.1c1,0,1.8,0.4,2.4,1.1c0.6,0.7,0.9,1.7,0.9,2.9
		v0.5c0,1.2-0.3,2.2-0.9,2.9c-0.6,0.7-1.4,1-2.4,1c-1,0-1.9-0.3-2.4-1c-0.6-0.7-0.9-1.7-0.9-2.9V48.2z M192.2,48.7
		c0,1.5,0.4,2.2,1.2,2.2c0.7,0,1.1-0.6,1.2-1.8l0-0.9c0-0.7-0.1-1.3-0.3-1.6c-0.2-0.4-0.5-0.5-0.9-0.5c-0.4,0-0.6,0.2-0.8,0.5
		c-0.2,0.4-0.3,0.9-0.3,1.6V48.7z"/>
	<path fill="#C70000" d="M205.3,48.7h-3.7v-1.8h3.7V48.7z"/>
	<path fill="#C70000" d="M217.4,43.4h-2.7v9.1h-2.2v-9.1h-2.7v-1.8h7.6V43.4z"/>
	<path fill="#C70000" d="M221.1,52.5c-0.1-0.1-0.1-0.3-0.2-0.6c-0.4,0.5-0.9,0.8-1.5,0.8c-0.7,0-1.2-0.2-1.7-0.7
		c-0.4-0.5-0.7-1-0.7-1.7c0-0.9,0.3-1.5,0.8-2c0.5-0.5,1.3-0.7,2.3-0.7h0.6v-0.7c0-0.4-0.1-0.6-0.2-0.8c-0.1-0.1-0.3-0.2-0.5-0.2
		c-0.5,0-0.8,0.3-0.8,0.9h-2.1c0-0.8,0.3-1.4,0.8-1.9c0.6-0.5,1.3-0.7,2.1-0.7c0.9,0,1.6,0.2,2.1,0.7c0.5,0.5,0.7,1.1,0.7,2v3.8
		c0,0.7,0.1,1.2,0.3,1.6v0.1H221.1z M222.7,43.1L222.7,43.1l-1.7,0.1l-0.9-1.1l-0.9,1.1l-1.6,0V43l2-2.1h1.2L222.7,43.1z
		 M219.6,53.1c0.4,0,0.7,0.1,0.9,0.3c0.2,0.2,0.3,0.4,0.3,0.7c0,0.3-0.1,0.5-0.3,0.7c-0.2,0.2-0.5,0.3-0.9,0.3
		c-0.4,0-0.7-0.1-0.9-0.3c-0.2-0.2-0.3-0.4-0.3-0.7c0-0.3,0.1-0.5,0.3-0.7C218.9,53.2,219.2,53.1,219.6,53.1z M219.9,51
		c0.2,0,0.4,0,0.6-0.1c0.2-0.1,0.3-0.2,0.4-0.3v-1.7h-0.5c-0.4,0-0.6,0.1-0.9,0.3c-0.2,0.2-0.3,0.5-0.3,0.9
		C219.2,50.7,219.4,51,219.9,51z"/>
	<path fill="#C70000" d="M226.4,44.4l0.1,0.8c0.5-0.6,1.1-1,1.9-1c1.4,0,2.1,1,2.2,2.9v5.3h-2.1v-5.2c0-0.5-0.1-0.8-0.2-1
		s-0.4-0.3-0.7-0.3c-0.4,0-0.7,0.2-0.9,0.6v5.9h-2.1v-8.1H226.4z"/>
	<path fill="#C70000" d="M238.1,42.4v2h1.1V46h-1.1v4c0,0.3,0,0.5,0.1,0.7c0.1,0.1,0.3,0.2,0.5,0.2c0.2,0,0.4,0,0.5-0.1l0,1.7
		c-0.4,0.1-0.8,0.2-1.2,0.2c-1.4,0-2.1-0.8-2.1-2.4V46H235v-1.6h0.9v-2H238.1z"/>
	<path fill="#C70000" d="M244.2,52.5c-0.1-0.1-0.1-0.3-0.2-0.6c-0.4,0.5-0.9,0.8-1.5,0.8c-0.7,0-1.2-0.2-1.7-0.7
		c-0.4-0.5-0.7-1-0.7-1.7c0-0.9,0.3-1.5,0.8-2c0.5-0.5,1.3-0.7,2.3-0.7h0.6v-0.7c0-0.4-0.1-0.6-0.2-0.8c-0.1-0.1-0.3-0.2-0.5-0.2
		c-0.5,0-0.8,0.3-0.8,0.9h-2.1c0-0.8,0.3-1.4,0.8-1.9c0.6-0.5,1.3-0.7,2.1-0.7c0.9,0,1.6,0.2,2.1,0.7c0.5,0.5,0.7,1.1,0.7,2v3.8
		c0,0.7,0.1,1.2,0.3,1.6v0.1H244.2z M245.7,43.1L245.7,43.1l-1.7,0.1l-0.9-1.1l-0.9,1.1l-1.6,0V43l2-2.1h1.2L245.7,43.1z M242.9,51
		c0.2,0,0.4,0,0.6-0.1c0.2-0.1,0.3-0.2,0.4-0.3v-1.7h-0.5c-0.4,0-0.6,0.1-0.9,0.3c-0.2,0.2-0.3,0.5-0.3,0.9
		C242.2,50.7,242.5,51,242.9,51z"/>
	<path fill="#C70000" d="M249.6,44.4l0.1,0.8c0.5-0.6,1.1-0.9,1.9-0.9c0.8,0,1.4,0.4,1.7,1.1c0.5-0.7,1.1-1.1,2-1.1
		c1.4,0,2.1,1,2.2,3v5.3h-2.1v-5.2c0-0.5-0.1-0.8-0.2-1c-0.1-0.2-0.3-0.3-0.7-0.3c-0.4,0-0.7,0.2-0.9,0.7l0,0.3v5.5h-2.1v-5.2
		c0-0.5-0.1-0.8-0.2-1c-0.1-0.2-0.3-0.3-0.7-0.3c-0.4,0-0.7,0.2-0.9,0.6v5.9h-2.1v-8.1H249.6z"/>
	<path fill="#C70000" d="M266.3,48.7h-3.7v-1.8h3.7V48.7z"/>
	<path fill="#C70000" d="M278.4,43.4h-2.7v9.1h-2.2v-9.1h-2.7v-1.8h7.6V43.4z"/>
	<path fill="#C70000" d="M283.1,46.4l-0.7-0.1c-0.6,0-1,0.3-1.2,0.8v5.4H279v-8.1h2l0.1,0.9c0.3-0.7,0.8-1,1.4-1
		c0.2,0,0.4,0,0.6,0.1L283.1,46.4z"/>
	<path fill="#C70000" d="M287.8,52.5c-0.1-0.1-0.1-0.3-0.2-0.6c-0.4,0.5-0.9,0.8-1.5,0.8c-0.7,0-1.2-0.2-1.7-0.7
		c-0.4-0.5-0.7-1-0.7-1.7c0-0.9,0.3-1.5,0.8-2c0.5-0.5,1.3-0.7,2.3-0.7h0.6v-0.7c0-0.4-0.1-0.6-0.2-0.8c-0.1-0.1-0.3-0.2-0.5-0.2
		c-0.5,0-0.8,0.3-0.8,0.9h-2.1c0-0.8,0.3-1.4,0.8-1.9c0.6-0.5,1.3-0.7,2.1-0.7c0.9,0,1.6,0.2,2.1,0.7c0.5,0.5,0.7,1.1,0.7,2v3.8
		c0,0.7,0.1,1.2,0.3,1.6v0.1H287.8z M287.2,41h2.4l-2.1,2.3h-1.8L287.2,41z M286.5,51c0.2,0,0.4,0,0.6-0.1c0.2-0.1,0.3-0.2,0.4-0.3
		v-1.7H287c-0.4,0-0.6,0.1-0.9,0.3c-0.2,0.2-0.3,0.5-0.3,0.9C285.8,50.7,286.1,51,286.5,51z"/>
	<path fill="#C70000" d="M294.1,50.9c0.6,0,0.9-0.4,0.9-1.2h2c0,0.9-0.3,1.6-0.8,2.1c-0.5,0.5-1.2,0.8-2.1,0.8c-1,0-1.8-0.3-2.4-1
		c-0.5-0.7-0.8-1.6-0.8-2.9v-0.6c0-1.3,0.3-2.2,0.8-2.9s1.3-1,2.4-1c0.9,0,1.6,0.3,2.1,0.8c0.5,0.6,0.8,1.3,0.8,2.4h-2
		c0-0.5-0.1-0.8-0.2-1.1c-0.1-0.2-0.4-0.4-0.7-0.4c-0.4,0-0.6,0.1-0.8,0.4s-0.2,0.8-0.3,1.5v0.8c0,0.7,0,1.1,0.1,1.4
		c0.1,0.3,0.2,0.5,0.3,0.6S293.8,50.9,294.1,50.9z"/>
	<path fill="#C70000" d="M300.3,45.1c0.5-0.6,1-0.9,1.7-0.9c0.7,0,1.3,0.3,1.7,0.8c0.4,0.5,0.6,1.3,0.6,2.3v5.2h-2.1v-5.1
		c0-0.5-0.1-0.8-0.2-1c-0.1-0.2-0.4-0.3-0.7-0.3c-0.4,0-0.7,0.2-0.9,0.5v6h-2.1V41h2.1V45.1z"/>
	<path fill="#C70000" d="M311.3,44.4l0.1,0.8c0.5-0.6,1.1-1,1.9-1c1.4,0,2.1,1,2.2,2.9v5.3h-2.1v-5.2c0-0.5-0.1-0.8-0.2-1
		s-0.4-0.3-0.7-0.3c-0.4,0-0.7,0.2-0.9,0.6v5.9h-2.1v-8.1H311.3z"/>
	<path fill="#C70000" d="M319,45.1c0.5-0.6,1-0.9,1.7-0.9c0.7,0,1.3,0.3,1.7,0.8c0.4,0.5,0.6,1.3,0.6,2.3v5.2h-2.1v-5.1
		c0-0.5-0.1-0.8-0.2-1c-0.1-0.2-0.4-0.3-0.7-0.3c-0.4,0-0.7,0.2-0.9,0.5v6h-2.1V41h2.1V45.1z"/>
	<path fill="#C70000" d="M324.5,42.3c0-0.3,0.1-0.6,0.3-0.8c0.2-0.2,0.5-0.3,0.8-0.3c0.3,0,0.6,0.1,0.8,0.3c0.2,0.2,0.3,0.5,0.3,0.8
		c0,0.3-0.1,0.6-0.3,0.8c-0.2,0.2-0.5,0.3-0.8,0.3c-0.4,0-0.6-0.1-0.8-0.3C324.6,42.9,324.5,42.6,324.5,42.3z M326.7,52.5h-2.1v-8.1
		h2.1V52.5z"/>
	<path fill="#C70000" d="M331.6,52.6c-1.1,0-1.9-0.3-2.6-1c-0.6-0.7-0.9-1.6-0.9-2.8v-0.6c0-1.3,0.3-2.3,0.8-3c0.6-0.7,1.4-1,2.4-1
		c1,0,1.8,0.3,2.3,1s0.8,1.6,0.8,2.9v1h-4.2c0,0.6,0.2,1,0.4,1.3s0.6,0.4,1.1,0.4c0.7,0,1.3-0.2,1.8-0.7l0.8,1.3
		c-0.3,0.4-0.6,0.7-1.1,0.9C332.8,52.5,332.2,52.6,331.6,52.6z M333.7,43.1L333.7,43.1l-1.7,0.1l-0.9-1.1l-0.9,1.1l-1.6,0V43l2-2.1
		h1.2L333.7,43.1z M331.3,53.2c0.4,0,0.7,0.1,0.9,0.3c0.2,0.2,0.3,0.4,0.3,0.7c0,0.3-0.1,0.5-0.3,0.7c-0.2,0.2-0.5,0.3-0.9,0.3
		c-0.4,0-0.7-0.1-0.9-0.3c-0.2-0.2-0.3-0.4-0.3-0.7c0-0.3,0.1-0.5,0.3-0.7C330.7,53.3,331,53.2,331.3,53.2z M330.3,47.7h2.1v-0.2
		c0-0.5-0.1-0.9-0.2-1.1s-0.4-0.4-0.8-0.4c-0.4,0-0.6,0.1-0.8,0.4C330.4,46.6,330.3,47.1,330.3,47.7z"/>
	<path fill="#C70000" d="M337.7,44.4l0.1,0.8c0.5-0.6,1.1-0.9,1.9-0.9c0.8,0,1.4,0.4,1.7,1.1c0.5-0.7,1.1-1.1,2-1.1
		c1.4,0,2.1,1,2.2,3v5.3h-2.1v-5.2c0-0.5-0.1-0.8-0.2-1c-0.1-0.2-0.3-0.3-0.7-0.3c-0.4,0-0.7,0.2-0.9,0.7l0,0.3v5.5h-2.1v-5.2
		c0-0.5-0.1-0.8-0.2-1c-0.1-0.2-0.3-0.3-0.7-0.3c-0.4,0-0.7,0.2-0.9,0.6v5.9h-2.1v-8.1H337.7z"/>
	<path fill="#C70000" d="M354.5,48.7h-3.7v-1.8h3.7V48.7z"/>
	<path fill="#C70000" d="M367.6,52.5h-2.2v-4.7h-3.3v4.7h-2.2V41.6h2.2V46h3.3v-4.4h2.2V52.5z"/>
	<path fill="#C70000" d="M369,48.2c0-1.2,0.3-2.2,0.9-2.9c0.6-0.7,1.4-1.1,2.4-1.1c1,0,1.8,0.4,2.4,1.1c0.6,0.7,0.9,1.7,0.9,2.9v0.5
		c0,1.2-0.3,2.2-0.9,2.9c-0.6,0.7-1.4,1-2.4,1c-1,0-1.9-0.3-2.4-1c-0.6-0.7-0.9-1.7-0.9-2.9V48.2z M374.8,43.1L374.8,43.1l-1.7,0.1
		l-0.9-1.1l-0.9,1.1l-1.6,0V43l2-2.1h1.2L374.8,43.1z M372.2,53.3c0.4,0,0.7,0.1,0.9,0.3c0.2,0.2,0.3,0.4,0.3,0.7
		c0,0.3-0.1,0.5-0.3,0.7c-0.2,0.2-0.5,0.3-0.9,0.3c-0.4,0-0.7-0.1-0.9-0.3c-0.2-0.2-0.3-0.4-0.3-0.7c0-0.3,0.1-0.5,0.3-0.7
		S371.9,53.3,372.2,53.3z M371.1,48.7c0,1.5,0.4,2.2,1.2,2.2c0.7,0,1.1-0.6,1.2-1.8l0-0.9c0-0.7-0.1-1.3-0.3-1.6
		c-0.2-0.4-0.5-0.5-0.9-0.5c-0.4,0-0.6,0.2-0.8,0.5c-0.2,0.4-0.3,0.9-0.3,1.6V48.7z"/>
	<path fill="#C70000" d="M376.9,42.3c0-0.3,0.1-0.6,0.3-0.8c0.2-0.2,0.5-0.3,0.8-0.3c0.3,0,0.6,0.1,0.8,0.3c0.2,0.2,0.3,0.5,0.3,0.8
		c0,0.3-0.1,0.6-0.3,0.8c-0.2,0.2-0.5,0.3-0.8,0.3c-0.4,0-0.6-0.1-0.8-0.3C377,42.9,376.9,42.6,376.9,42.3z M379.1,52.5H377v-8.1
		h2.1V52.5z"/>
	<path fill="#C70000" d="M386.2,44.4l0.1,0.8c0.5-0.6,1.1-1,1.9-1c1.4,0,2.1,1,2.2,2.9v5.3h-2.1v-5.2c0-0.5-0.1-0.8-0.2-1
		s-0.4-0.3-0.7-0.3c-0.4,0-0.7,0.2-0.9,0.6v5.9h-2.1v-8.1H386.2z"/>
	<path fill="#C70000" d="M393.9,45.1c0.5-0.6,1-0.9,1.7-0.9c0.7,0,1.3,0.3,1.7,0.8c0.4,0.5,0.6,1.3,0.6,2.3v5.2h-2.1v-5.1
		c0-0.5-0.1-0.8-0.2-1c-0.1-0.2-0.4-0.3-0.7-0.3c-0.4,0-0.7,0.2-0.9,0.5v6h-2.1V41h2.1V45.1z"/>
	<path fill="#C70000" d="M403.3,52.5c-0.1-0.1-0.1-0.3-0.2-0.6c-0.4,0.5-0.9,0.8-1.5,0.8c-0.7,0-1.2-0.2-1.7-0.7
		c-0.4-0.5-0.7-1-0.7-1.7c0-0.9,0.3-1.5,0.8-2c0.5-0.5,1.3-0.7,2.3-0.7h0.6v-0.7c0-0.4-0.1-0.6-0.2-0.8c-0.1-0.1-0.3-0.2-0.5-0.2
		c-0.5,0-0.8,0.3-0.8,0.9h-2.1c0-0.8,0.3-1.4,0.8-1.9c0.6-0.5,1.3-0.7,2.1-0.7c0.9,0,1.6,0.2,2.1,0.7c0.5,0.5,0.7,1.1,0.7,2v3.8
		c0,0.7,0.1,1.2,0.3,1.6v0.1H403.3z M404.8,43.1L404.8,43.1l-1.7,0.1l-0.9-1.1l-0.9,1.1l-1.6,0V43l2-2.1h1.2L404.8,43.1z
		 M401.7,53.1c0.4,0,0.7,0.1,0.9,0.3c0.2,0.2,0.3,0.4,0.3,0.7c0,0.3-0.1,0.5-0.3,0.7c-0.2,0.2-0.5,0.3-0.9,0.3
		c-0.4,0-0.7-0.1-0.9-0.3c-0.2-0.2-0.3-0.4-0.3-0.7c0-0.3,0.1-0.5,0.3-0.7C401.1,53.2,401.4,53.1,401.7,53.1z M402,51
		c0.2,0,0.4,0,0.6-0.1c0.2-0.1,0.3-0.2,0.4-0.3v-1.7h-0.5c-0.4,0-0.6,0.1-0.9,0.3c-0.2,0.2-0.3,0.5-0.3,0.9
		C401.3,50.7,401.6,51,402,51z"/>
	<path fill="#C70000" d="M413,48.7c0,1.3-0.2,2.3-0.7,2.9c-0.4,0.7-1.1,1-2,1c-0.7,0-1.2-0.3-1.6-0.8v3.8h-2.1V44.4h2l0.1,0.7
		c0.4-0.6,1-0.9,1.7-0.9c0.9,0,1.5,0.3,2,0.9c0.4,0.6,0.7,1.6,0.7,2.9V48.7z M410.9,48.2c0-0.8-0.1-1.3-0.3-1.7
		c-0.2-0.3-0.5-0.5-0.9-0.5c-0.4,0-0.8,0.2-1,0.5v3.8c0.2,0.4,0.5,0.5,1,0.5c0.4,0,0.7-0.2,0.9-0.5c0.2-0.4,0.2-0.9,0.2-1.7V48.2z"
		/>
</g>
</svg>
